<?xml version="1.0" encoding="utf-8"?>

<svg version="1.1" id="Capa_1" xmlns="http://www.w3.org/2000/svg" xmlns:xlink="http://www.w3.org/1999/xlink" x="0px" y="0px"
	 viewBox="0 0 1000 1000" style="enable-background:new 0 0 1000 1000;" xml:space="preserve">
<style type="text/css">
	.st0{fill:#003DA6;}
	.st1{fill:#FFEA00;}
	.st2{fill:#FFFFFF;}
</style>
<g>
	<path class="st0" d="M464.6,877.7l-3.7,2.6c2.7,8.8-6,20.1,1.7,25c7.5-7.7,9.5-18.8,4.6-26.4L464.6,877.7z"/>
	<g>
		<path class="st1" d="M411.8,333.2c6.1-3.7,21-4.3,23.6,12.1c0,0,2.4,8.4,26,7.8c23.6-0.6,24.2-3.5,24.2-3.5s-16.4-1.5-34.4-15.1
			c-18-13.6-24.7-19.3-41.5-13.8c-18.7,6-17.1,30.1-8.7,36.8c8.4,6.7,26.8,6.7,30.1-8.9c3.2-15.6-10.8-13.8-12.6-13.2
			c-1.7,0.6-5,2.4-6.5,7.6c0,0,0,2.8-2.8,1.5C406.4,343.2,405.8,336.9,411.8,333.2"/>
		<rect x="345" y="210.3" class="st1" width="313.6" height="59"/>
		<polygon class="st1" points="564.1,435.4 406.3,435.4 406.3,460.8 597.2,460.8 597.2,435.4 597.2,299.7 597.2,277 564.1,277 
			345,277 345,299.7 564.1,299.7 		"/>
		<polygon class="st1" points="556,306.9 507.9,306.9 508,332.8 556.1,332.8 		"/>
		<rect x="605" y="308" class="st1" width="28.8" height="58"/>
		<rect x="605" y="277" class="st1" width="53.1" height="22.6"/>
		<polygon class="st1" points="508,365.9 556.1,365.9 556,340 507.9,340 		"/>
		<path class="st1" d="M391.5,829c34.1,11.2,70.5,17.4,108.3,17.4c35.1,0,68.9-5.3,100.8-15v-308H391.5V829z"/>
		<path class="st1" d="M627.2,523.5v298.7c121.2-48,208.9-162.6,217.9-298.7H627.2z"/>
		<rect x="299.2" y="470.7" class="st1" width="407.3" height="35.3"/>
		<path class="st1" d="M365,819V523.5H154.6C163.4,656.7,247.6,769.3,365,819"/>
		<polygon class="st1" points="508,398 556.1,398 556,372.1 507.9,372.1 		"/>
		<polygon class="st1" points="508,428.9 556.1,428.9 556,403 507.9,403 		"/>
		<path class="st0" d="M499.8,39.5c254.5,0,460.7,206.3,460.7,460.8c0,254.5-206.3,460.7-460.7,460.7
			C245.3,961,39.1,754.7,39.1,500.3C39.1,245.8,245.3,39.5,499.8,39.5 M499.8,975.3c262.3,0,475-212.7,475-475
			c0-262.3-212.6-475-475-475s-475,212.7-475,475C24.8,762.6,237.5,975.3,499.8,975.3"/>
		<path class="st0" d="M352.2,846.2l-8.4,20.9l2.5,0c8.8-2.4,12-12.5,11-19.7L352.2,846.2z"/>
		<path class="st0" d="M749,777.3l1,2.5l1.6,0c5-3.9,9.7-5.2,10.8-10.2l-2.5-2.2C753.6,771.3,751.4,772.6,749,777.3"/>
		<path class="st0" d="M122.4,653.4l5.1,2.4c8.5-0.1,16-1.5,20.6-6.6l1.1-7.3l-25.7,7.7L122.4,653.4z"/>
		<path class="st0" d="M841.4,343.1l7.5-0.1c5-2.6,5.9-3.9,8.7-6.5c2.1-5.1-0.2-11-3.1-14.4c-4.8-3.7-8.5-2.7-12.3-2.6
			c-7.2,3.6-9.8,12.4-8.2,17.4C837.6,339.4,837.6,341.9,841.4,343.1"/>
		<path class="st0" d="M409.6,320.7c16.9-5.4,23.6,0.2,41.5,13.9c18,13.6,34.4,15.1,34.4,15.1s-0.6,2.8-24.2,3.5
			c-23.6,0.6-26-7.8-26-7.8c-2.6-16.4-17.5-15.8-23.6-12.1c-6.1,3.7-5.4,9.9-2.6,11.2c2.8,1.3,2.8-1.5,2.8-1.5
			c1.5-5.2,4.8-6.9,6.5-7.6c1.7-0.7,15.8-2.4,12.6,13.2c-3.3,15.6-21.6,15.6-30.1,8.9C392.6,350.7,390.9,326.7,409.6,320.7
			 M402.3,363.5c8.2,3.3,26.2,6.9,33.3-13.2c0,0,6.9,5.9,27.7,5.9c20.8,0,28.8-7.2,28.8-7.2s-22.9-4.5-37-15.8
			c-13.5-10.8-33.4-28.3-55-12.1C383.5,333.6,390.5,358.8,402.3,363.5"/>
		<path class="st0" d="M378.5,253.7c-3.9,0-7-3.1-7-7c0-3.9,3.1-7,7-7c3.9,0,7,3.1,7,7C385.5,250.6,382.4,253.7,378.5,253.7
			 M398.7,253.7c-3.9,0-7-3.1-7-7c0-3.9,3.1-7,7-7c3.9,0,7,3.1,7,7C405.7,250.6,402.6,253.7,398.7,253.7 M418.9,253.7
			c-3.9,0-7-3.1-7-7c0-3.9,3.1-7,7-7c3.9,0,7,3.1,7,7C425.9,250.6,422.8,253.7,418.9,253.7 M439.1,253.7c-3.9,0-7-3.1-7-7
			c0-3.9,3.1-7,7-7c3.9,0,7,3.1,7,7C446.1,250.6,443,253.7,439.1,253.7 M459.3,253.7c-3.9,0-7-3.1-7-7c0-3.9,3.1-7,7-7
			c3.9,0,7,3.1,7,7C466.3,250.6,463.2,253.7,459.3,253.7 M479.5,253.7c-3.9,0-7-3.1-7-7c0-3.9,3.1-7,7-7c3.9,0,7,3.1,7,7
			C486.5,250.6,483.4,253.7,479.5,253.7 M499.7,253.7c-3.9,0-7-3.1-7-7c0-3.9,3.1-7,7-7c3.9,0,7,3.1,7,7
			C506.7,250.6,503.6,253.7,499.7,253.7 M519.9,253.7c-3.9,0-7-3.1-7-7c0-3.9,3.1-7,7-7c3.9,0,7,3.1,7,7
			C526.9,250.6,523.8,253.7,519.9,253.7 M540.1,253.7c-3.9,0-7-3.1-7-7c0-3.9,3.1-7,7-7c3.9,0,7,3.1,7,7
			C547.1,250.6,544,253.7,540.1,253.7 M560.3,253.7c-3.9,0-7-3.1-7-7c0-3.9,3.1-7,7-7c3.9,0,7,3.1,7,7
			C567.3,250.6,564.2,253.7,560.3,253.7 M580.5,253.7c-3.9,0-7-3.1-7-7c0-3.9,3.1-7,7-7c3.9,0,7,3.1,7,7
			C587.5,250.6,584.4,253.7,580.5,253.7 M600.7,253.7c-3.9,0-7-3.1-7-7c0-3.9,3.1-7,7-7c3.9,0,7,3.1,7,7
			C607.7,250.6,604.5,253.7,600.7,253.7 M620.9,253.7c-3.9,0-7-3.1-7-7c0-3.9,3.1-7,7-7c3.8,0,7,3.1,7,7
			C627.9,250.6,624.7,253.7,620.9,253.7 M631.2,224c3.9,0,7,3.1,7,7c0,3.9-3.1,7-7,7c-3.9,0-7-3.1-7-7
			C624.2,227.1,627.4,224,631.2,224 M610.9,224c3.9,0,7,3.1,7,7c0,3.9-3.1,7-7,7c-3.9,0-7-3.1-7-7C603.9,227.1,607,224,610.9,224
			 M590.7,224c3.9,0,7,3.1,7,7c0,3.9-3.1,7-7,7c-3.9,0-7-3.1-7-7C583.7,227.1,586.8,224,590.7,224 M570.5,224c3.9,0,7,3.1,7,7
			c0,3.9-3.2,7-7,7s-7-3.1-7-7C563.5,227.1,566.6,224,570.5,224 M550.3,224c3.9,0,7,3.1,7,7c0,3.9-3.1,7-7,7c-3.9,0-7-3.1-7-7
			C543.3,227.1,546.5,224,550.3,224 M530.1,224c3.9,0,7,3.1,7,7c0,3.9-3.1,7-7,7c-3.9,0-7-3.1-7-7C523.1,227.1,526.3,224,530.1,224
			 M509.9,224c3.9,0,7,3.1,7,7c0,3.9-3.1,7-7,7c-3.9,0-7-3.1-7-7C502.9,227.1,506.1,224,509.9,224 M489.7,224c3.9,0,7,3.1,7,7
			c0,3.9-3.1,7-7,7c-3.9,0-7-3.1-7-7C482.7,227.1,485.9,224,489.7,224 M469.6,224c3.9,0,7,3.1,7,7c0,3.9-3.1,7-7,7c-3.9,0-7-3.1-7-7
			C462.5,227.1,465.7,224,469.6,224 M449.4,224c3.9,0,7,3.1,7,7c0,3.9-3.2,7-7,7c-3.9,0-7-3.1-7-7C442.3,227.1,445.5,224,449.4,224
			 M429.2,224c3.9,0,7,3.1,7,7c0,3.9-3.2,7-7,7c-3.9,0-7-3.1-7-7C422.1,227.1,425.3,224,429.2,224 M409,224c3.9,0,7,3.1,7,7
			c0,3.9-3.1,7-7,7c-3.9,0-7-3.1-7-7C401.9,227.1,405.1,224,409,224 M388.8,224c3.9,0,7,3.1,7,7c0,3.9-3.1,7-7,7c-3.9,0-7-3.1-7-7
			C381.7,227.1,384.9,224,388.8,224 M368.6,224c3.9,0,7,3.1,7,7c0,3.9-3.1,7-7,7c-3.9,0-7-3.1-7-7C361.5,227.1,364.7,224,368.6,224
			 M353.9,222.5h12.5c-3.8,1-6.6,4.4-6.6,8.5c0,4.9,3.9,8.8,8.8,8.8c4.9,0,8.8-3.9,8.8-8.8c0-4.1-2.8-7.5-6.6-8.5h15.8
			c-3.8,1-6.6,4.4-6.6,8.5c0,4.9,3.9,8.8,8.8,8.8c4.9,0,8.8-3.9,8.8-8.8c0-4.1-2.8-7.5-6.6-8.5h15.8c-3.8,1-6.6,4.4-6.6,8.5
			c0,4.9,3.9,8.8,8.8,8.8c4.9,0,8.8-3.9,8.8-8.8c0-4.1-2.8-7.5-6.6-8.5H427c-3.8,1-6.6,4.4-6.6,8.5c0,4.9,3.9,8.8,8.8,8.8
			c4.9,0,8.8-3.9,8.8-8.8c0-4.1-2.8-7.5-6.6-8.5h15.8c-3.8,1-6.6,4.4-6.6,8.5c0,4.9,3.9,8.8,8.8,8.8c4.9,0,8.8-3.9,8.8-8.8
			c0-4.1-2.8-7.5-6.6-8.5h15.8c-3.8,1-6.6,4.4-6.6,8.5c0,4.9,3.9,8.8,8.8,8.8c4.9,0,8.8-3.9,8.8-8.8c0-4.1-2.8-7.5-6.6-8.5h15.8
			c-3.8,1-6.6,4.4-6.6,8.5c0,4.9,3.9,8.8,8.8,8.8c4.9,0,8.8-3.9,8.8-8.8c0-4.1-2.8-7.5-6.6-8.5h15.8c-3.8,1-6.6,4.4-6.6,8.5
			c0,4.9,4,8.8,8.8,8.8c4.9,0,8.8-3.9,8.8-8.8c0-4.1-2.8-7.5-6.6-8.5H528c-3.8,1-6.6,4.4-6.6,8.5c0,4.9,4,8.8,8.8,8.8
			c4.9,0,8.8-3.9,8.8-8.8c0-4.1-2.8-7.5-6.6-8.5h15.8c-3.8,1-6.6,4.4-6.6,8.5c0,4.9,4,8.8,8.8,8.8c4.9,0,8.8-3.9,8.8-8.8
			c0-4.1-2.8-7.5-6.6-8.5h15.8c-3.8,1-6.6,4.4-6.6,8.5c0,4.9,3.9,8.8,8.8,8.8c4.9,0,8.8-3.9,8.8-8.8c0-4.1-2.8-7.5-6.6-8.5h15.8
			c-3.8,1-6.6,4.4-6.6,8.5c0,4.9,4,8.8,8.8,8.8c4.9,0,8.8-3.9,8.8-8.8c0-4.1-2.8-7.5-6.6-8.5h15.8c-3.8,1-6.6,4.4-6.6,8.5
			c0,4.9,4,8.8,8.8,8.8c4.8,0,8.8-3.9,8.8-8.8c0-4.1-2.8-7.5-6.6-8.5H629c-3.8,1-6.6,4.4-6.6,8.5c0,4.9,3.9,8.8,8.8,8.8
			c4.9,0,8.8-3.9,8.8-8.8c0-4.1-2.8-7.5-6.6-8.5h12.3v32.8h-23c4-0.8,7-4.4,7-8.6c0-4.9-3.9-8.8-8.8-8.8c-4.9,0-8.8,3.9-8.8,8.8
			c0,4.2,3,7.8,7,8.6h-16.5c4-0.8,7-4.4,7-8.6c0-4.9-3.9-8.8-8.8-8.8c-4.9,0-8.8,3.9-8.8,8.8c0,4.2,3,7.8,7,8.6h-16.5
			c4-0.8,7-4.4,7-8.6c0-4.9-3.9-8.8-8.8-8.8c-4.9,0-8.8,3.9-8.8,8.8c0,4.2,3,7.8,7,8.6h-16.5c4-0.8,7-4.4,7-8.6
			c0-4.9-3.9-8.8-8.8-8.8c-4.9,0-8.8,3.9-8.8,8.8c0,4.2,3,7.8,7,8.6h-16.5c4-0.8,7-4.4,7-8.6c0-4.9-3.9-8.8-8.8-8.8
			c-4.9,0-8.8,3.9-8.8,8.8c0,4.2,3,7.8,7,8.6h-16.5c4-0.8,7-4.4,7-8.6c0-4.9-3.9-8.8-8.8-8.8c-4.9,0-8.8,3.9-8.8,8.8
			c0,4.2,3,7.8,7,8.6h-16.5c4-0.8,7-4.4,7-8.6c0-4.9-3.9-8.8-8.8-8.8c-4.8,0-8.8,3.9-8.8,8.8c0,4.2,3,7.8,7,8.6h-16.5
			c4-0.8,7-4.4,7-8.6c0-4.9-3.9-8.8-8.8-8.8c-4.8,0-8.8,3.9-8.8,8.8c0,4.2,3,7.8,7,8.6h-16.5c4-0.8,7-4.4,7-8.6
			c0-4.9-3.9-8.8-8.8-8.8c-4.9,0-8.8,3.9-8.8,8.8c0,4.2,3,7.8,7,8.6h-16.5c4-0.8,7-4.4,7-8.6c0-4.9-3.9-8.8-8.8-8.8
			c-4.9,0-8.8,3.9-8.8,8.8c0,4.2,3,7.8,7,8.6h-16.5c4-0.8,7-4.4,7-8.6c0-4.9-3.9-8.8-8.8-8.8c-4.9,0-8.8,3.9-8.8,8.8
			c0,4.2,3,7.8,7,8.6h-16.5c4-0.8,7-4.4,7-8.6c0-4.9-3.9-8.8-8.8-8.8c-4.9,0-8.8,3.9-8.8,8.8c0,4.2,3,7.8,7,8.6h-16.5
			c4-0.8,7-4.4,7-8.6c0-4.9-3.9-8.8-8.8-8.8c-4.9,0-8.8,3.9-8.8,8.8c0,4.2,3,7.8,7,8.6h-22.8V222.5z M349.4,259.3h300.8v-40.4H349.4
			V259.3z"/>
		<path class="st0" d="M851.6,708.6c-13.6-7-4.3-28.2-14.2-37.8c-7.2,1-9.5,12.4-15.7,18.8c-5,0.1-5.1-3.7-9.8-4.9l21.5-49.7
			c2.2-1.3,4.4,1.2,8.2,2.1l15.3,30.8c2.8-2.6,4.8-10.1,8.5-16.5c3.7-2.3,10.1-0.2,12.6,3.6L851.6,708.6z M812,767.8
			c-1.3-2.5-7.6-2.4-9-8.6L831,719c3.8,1.2,6,3.7,9.9,7.4L812,767.8z M800.4,748.2c-2.5,0-5,3.5-8.8,2.4l-3.5-4.7l2.1-5.1
			c2.8-1.3,6.2-3.9,10-2.7l2.6,5L800.4,748.2z M793.8,787.6c-4.9,8.9-16.4-3.2-23.6-3.1c-3.8,1.3-6.2,2.6-8.7,7.7
			c0.1,6,5.2,8.4,11.2,13c-0.8,6.3-7.1,8.9-13.3,13.8L728,779l30.3-27.9c3.7-2.3,7.6,2.7,12.6,2.6c3.8,2.1,9.9,9.6,6.3,17.2
			c3.9,5.9,13.6,7,21.2,10.6C797.2,782.8,797.3,786.6,793.8,787.6 M732.5,839.6c-3.5-1.2-4.8-3.7-9.9-6.1l-7.2,2.6
			c-3.7,3.8,2.4,8.8,1.5,13.5c-3.7,3.8-11.2,6.5-17.4,10.4l-5.3-34.8l-8.8-1.1c-2.5-0.9-3.8-4.6-6.4-8.4l2.4-5.1l22.1-12.6
			l45.1,28.8C744.9,831.8,739,834.4,732.5,839.6 M643,885.5l-22.8-45.2c2.5-2.5,10-3.9,15.9-6.6l16.6,34.3c2.5,1.2,6.4,4.9,10.1,1.1
			c9.6-9.9-8-26-12-39.4c1.2-3.8,9.6-9,16.2-9.1l17.8,46.9L643,885.5z M580.5,903.9l-2.5,0l-5.1-2.1c-2.6-5-2.7-10-4.1-16.3
			c5-2.3,10-3.9,16.3-2.5c0.1,3.4,5.1,3.4,8.6,5.8l5-2.6c6.1-11.1-1.7-24.5-6.9-34.5c2.4-4.8,11.2-8.7,17.2-6.6l13.4,46.9
			C609,899.6,595.2,901.4,580.5,903.9 M391.5,829V523.5h209.1v308c-31.9,9.7-65.7,15-100.8,15C462,846.4,425.6,840.2,391.5,829
			 M486.3,897c-0.9,3.8-3.3,7.6-5.7,12.4c-3.7,3.8-9.7,1.4-14.7,2.8l-1.3,0c-8.5,0.1-17.3-2.2-27.4-3l6.7-48.5c9.7-1.4,27-3,38.4,4
			C489.7,872.1,489.9,885.9,486.3,897 M406.3,902.2c-3.8-2.5,3.7-7.6-1.4-11l-5.1-2.7c-3.7,1.3-6.2,2.9-8.3,7.7
			c-6.2,3.9-11.3-1.1-18.6-2.2l18.1-27.7l-3.9-8.4c0-2.5,0.8-6.3,3.6-10.1c8.5-1.1,18.6,3.5,28.4,5.8l4.7,53.1
			C418.6,906.7,412.3,904.6,406.3,902.2 M350.3,885.5l-2.5,0.1l-27.2-11.8l20.3-45.9l25.9,9.3c7.3,6.2,10.1,18.4,7.7,28.5
			C369.6,872.9,362.6,885.3,350.3,885.5 M275.7,852c-11.6-8.7-14.3-16.7-14.3-16.7l22.9-37.2c6.2-2.6,12.3,2.3,16.2,6.9l-18,29.9
			l1.3,5l7.6,1.1c7.1-6.4,11.9-17.5,18.1-27.7c5.9-2.3,11,2.3,16.2,7.3l-28.8,40.1C296.8,860.7,287.3,860.7,275.7,852 M232.8,818.4
			l31.4-38.6c2.6,2.2,7.6,3.3,11.5,8.3L244.3,828C240.5,827.1,236.7,822.1,232.8,818.4 M225.3,802.5l-6.6,1.7
			c-11.1-6.4-18.5-12.3-23.4-23.2c-1.7-8.8,1.8-21.1,11.5-26.3c7.5-3.9,15.9-7.8,24.8-4.2c8.5,2.4,20,13.2,19,25.8
			c-1.2,3.8-6.3,1.4-10,2.4c-0.2-9.7-11.3-17.1-21-14.4c-5,2.6-11.1,12.8-7.2,18.7c1.3,5,6.1,4.9,11.1,8.6
			C226.1,792.8,227.4,797.4,225.3,802.5 M186.3,711.7l-20.1-34.2c0.9-2.5,4.6-3.8,8.4-6.4c7.3,6.2,11.3,18.7,19.4,27
			c0,1.3,1,3.4,3.6,7.2c-1.2,2.8-5,3.9-8.4,6.4L186.3,711.7z M157.5,697.5c-4.8,0-8.7-3.9-8.7-8.7c0-4.8,3.9-8.7,8.7-8.7
			c4.8,0,8.7,3.9,8.7,8.7C166.3,693.6,162.4,697.5,157.5,697.5 M163.3,727.2c-2.5,1-6.2,2.3-10,4.9l-21.7-36.7
			c0-2.5,6.5-4.1,10.2-6.7l22.3,34.7L163.3,727.2z M127.8,671.9l-7.6-2.4c-7.7-7.1-10.1-20.6-14.1-31.5l45.3-19.3
			c7.7,7.1,16.5,25.5,10.7,39.1c-6.1,11.1-19.6,13.9-32.1,14.1L127.8,671.9z M82.3,481.5c9.6-7.7,28.7,4.2,39.5-5.7l-1.4-5
			c-8.9-7.4-27.3,0.5-37.2-6.9c2.1-3.8-0.1-7.5,2-12.3l46,3.9c7.7,9.9,1.7,25.1-0.6,38.7c-3.7,3.5-9.7,1.1-14.7,2.5l-2.5,0
			c-9.8-1.1-18.6-0.9-29.6-1.7C80,492.5,81.2,486.2,82.3,481.5 M111.9,407.7l-1.3-3.8c-4.8-3.7-12.3-1-16.2-8.5
			c2.5-3.5,1.1-9.8,6.1-12.4l47.1,13c0.1,3.5,1.4,7.2-2.3,12.3c-6,1.4-13.6-2.3-20.7,4.1l0.1,4.7c3.8,2.8,9.8,2.7,14.8,2.6
			c7.6,2.1-1.1,11,0.3,17l-1.2,1.6l-49.9-10.4l-0.1-7.2C93.4,413.1,103.2,413.8,111.9,407.7 M109.6,348.3l48.3,13.9
			c2.9,6.2-0.7,11.3-4.4,18.6l-1.3,0l-47.1-17.7C106,359.4,105.9,354.7,109.6,348.3 M126.6,313.5c6-0.1,13.6,3.5,20.8,2.2l-1.4-6.3
			c-4.7-0.9-4.8-5.9-12.4-8.3c-0.1-3.8,2.3-10.1,6.1-12.4l37.7,32.7c1.4,5-3.6,11.1-6,17.1l-1.3,0l-52-10.1
			C120.2,324.9,121.6,317.3,126.6,313.5 M173.3,238.4c6-0.1,9.8,3.6,13.7,9.5l-29,34.2c-3.8-1.2-5.1-3.7-10.2-6.1L173.3,238.4z
			 M189,219.6c9.7-5.2,15.6-22.6,31.7-20.4c3.8,1.2,6,2.4,8.9,7.1l-13,48.6l-30-27.8L189,219.6z M259.7,159.3c2.5,0.9,5,2.1,7.3,7.1
			l-23,17.7l4.8,4.9c6.3-0.1,10-5.2,17.4-9.1l3.8,1.2l-17.3,20.1l-7.5,1.4c-6-3.7-9.9-9.9-15.1-18.3L259.7,159.3z M272.5,211.8
			l-0.9,3.6l-0.4,1.5l-0.3,1.1l-0.2,0.9l-0.8,3.4l-52.2,210.1c0,0,41.6,24,102.5,28.8c33.7,2.7,56.1-2,77.3-4v6.5H293.7v7
			c-51.3-6.8-85.4-26.5-85.4-26.5l55.2-222.1l1-4.2l0.2-0.8l0-0.2l0.7-2.8l0.5-2.1l2.9-11.6c2.1,1,3.9,2.1,5.7,3.2L272.5,211.8z
			 M275.1,215.7l1-3.9l1.7-6.6l0.6-2.6l4.3-17.4c1.8,0.9,3.3,1.8,4.9,2.7l-4.1,16.5l-0.8,3.1l-1.1,4.4l-1,3.9l-0.3,1.2l-0.4,1.5
			l-0.3,1.4l-0.7,2.9l-49.5,199.2c0,0,41.6,24,102.5,28.8c27.6,2.2,47.6-0.6,65.6-2.8v5c-20.9,1.9-42.8,6.7-76,4
			c-59-4.7-99.4-28-99.4-28l51.3-206.6l0.7-2.9l0.3-1.3l0.3-1.2L275.1,215.7z M292.7,140.1l24.2,39.5c-12.5-0.2-16.9-5.1-25-9.2
			L278,147.6C280.5,143.8,286.4,140.3,292.7,140.1 M350.5,121.5c6.1,6.2,13.8,18.3,11.5,29.3c-3.5,15.2-15.7,21.3-30.4,26.6
			l-25.3-45.1C314.7,122.2,335.6,114.2,350.5,121.5 M360,107.8c7.5-5.2,16-4,24.7-9.2l5.1,1.2l27.8,42.9c-1.2,2.5-5.9,3.9-9.7,5.2
			l-3.8-1.2c-2.6-3.7-2.7-8.4-8.7-11.2l-5,2.9c-1.2,2.2-1.1,6,0.2,9.7c0.1,6-8.7,7.4-14.9,10l-2.2,0c-0.2-11-0.4-22.3-0.6-34.6
			C367.8,122.5,359.2,116.7,360,107.8 M466.3,91.2c6,4.9,12.5,13.3,11.4,24.3c-3.3,10.1-6.9,18.7-19.4,23.9c-6,0.1-14.7,4-22.2,4.2
			l-9.4-53C438.9,89.2,455.1,81.7,466.3,91.2 M499.8,154.2c8.2,0,16.4,0.3,24.5,0.9c-10.4,2.7-17.4,6.1-20.9,8
			c-3.6-2-11.2-5.6-22.3-8.4C487.3,154.3,493.5,154.2,499.8,154.2 M560,91.8c7.4-6.1,19.9,2.5,31.2,3.2l3.5,55.6
			c-3.8,0.1-7.6-2.1-12.6-4.5c-2.6-3.7,2.4-8.9-1.5-13.8c-1.3,0-6.4-4.6-11.1-3.6c-2.4,3.8-2.4,7.6-4.8,12.7
			c-5,2.6-9.7,0.2-16.1-2.2l16.7-32.4C561.5,103.1,560.2,98.4,560,91.8 M627.2,105.7c3.8,1.2,7.2-0.1,12.3,3.2l-9.3,41
			c3.8,3.7,11.3-0.2,13.8-4c4.6-7.3,12-17.2,14.3-28.5c3.8-0.1,9.8,3.6,14.9,6l-25,46l-6.3,0.1l-30.1-14.2L627.2,105.7z
			 M686.1,145.2c0-2.2,0.8-8.5,4.5-11.1l48.6,30.3l-0.9,4.7c-2.5,1.3-2.5,3.8-7.4,6.4c-3.5-1.2-7.3-6.2-13.7-8.6
			c-4,1.1-6.4,3-8.4,6.9c-3.1,1.8-6.1,3.5-10,4.6c-4.3,0.1-8.8,0-13.7,1.1c-0.4,0-0.8-0.1-1.1-0.1l13.2-25.6
			C695.9,148.8,690.9,148.9,686.1,145.2 M764.8,188.5c14.8,1,22.2,13.1,30,26.5c4.9,11.2-4.6,25.2-12,32.6c-0.1,0-0.2,0.1-0.3,0.1
			l-7-23.4c1.8-4.3,2.9-8.6-0.6-13.7c-2.6-5-11.4-7-16.4-4.7c-1.1,0.4-2,1.1-2.8,2l-0.3-1.3c-3.7,1.8-6.6,3.8-9.8,5.5H745
			c-0.3-0.9-0.6-1.6-1.1-2.3l-3.4-13.8c-0.6,0.3-1.2,0.6-1.8,0.9C744.5,190.2,755,186.5,764.8,188.5 M818.8,239.7l2.5,0.9
			c6.2,10-2.2,18.6-2,29.9l1.3,2.5l3.5,0.9c3.8-1,7.2-3.6,10.9-8.7c5.1,1.2,12.7,9.8,11.6,17.1l-41.4,25.6c-1.3-2.5-4.1-2.5-6.4-7.1
			c-3.9-7.8,8.2-17.8,5.8-26.5l-5,0.1c-2.3,1-4.5,4.5-7.2,6.3l23.8,79.3c11.6,26.1,20.1,54,24.9,83l-57.2-190.6l3.5,11.8
			L818.8,239.7z M855.5,303.3c11.4,2.3,12.8,15.8,19,25.8c2.7,8.4-1.9,18.6-8.1,24.7c-5,2.6-11.2,5.2-17.2,6.6l-1.3,0
			c-6.3-1.2-13.5-1-19.6-7.2c-6.5-12.1-14.3-25.8-4.5-39.2C829.7,304.9,844.4,300,855.5,303.3 M713.2,507.8v-12.7
			c9.6,0.3,19.9,0.7,31,1.4c52.4,3.3,93-7.4,93-7.4l-76.8-272.2l6.4-1.1L853.2,504L713.2,507.8z M369.4,180.5c0,0-5.1,3.6-5.5,5.6
			c0,0,0.2,1.2,2.2,3.2l8.6,7.8c0,0,2,2.6,2.4,4.2c0,0,1.1,2.2,2.1,2.9h-41.3v102.1H499v121.4H397.4v16c-17.6,2.1-37.2,4.9-64.3,2.7
			c-59-4.7-99.4-28-99.4-28l48.6-195.7l0.8-3.1l0.3-1.1l0.4-1.6l0.4-1.5l0.9-3.6l0.9-3.5l0.9-3.5l3.8-15.3l0.6-2.6l3.1-12.4
			c15,7.5,17,17.9,84.5-5.3C377.7,170.6,371.3,178.3,369.4,180.5 M386.2,170.6l2.9,1.6c3.2,0.9,4.7,2.5,3.4,3.6
			c-1.4,1.1-4.3-1.1-4.3-1.1c-2.5-1.8-4.8-0.2-5.9,1.6c-1.1,1.8-3.8,4.8-3.8,4.8c-5.7,2.5-1.8,4.8-1.1,5.4c0.7,0.7,0,0,2.7,3.6
			c2.7,3.6,0.6,3.7,2.6,5.2c2.9,2.2,5.2-0.3,5.2-0.3c1.8-1.8,6.3-1.4,6.3-1.4c0,1.1,0.6,2.7-2.9,3.5c-3.3,0.8-8.1,3.6-8.1,3.6
			c-3.2,1.8-4.8-2.1-4.8-2.1c0-4.1-9.3-11.3-9.3-11.3s-1.1-0.7-1.1-1.8c0-1.1,6-6.5,6-6.5c3.2-2.9,4.5-4,7-7.9
			C383.3,167.5,386.2,170.6,386.2,170.6 M491.7,170.6c0,0-4.4,0.8-7.1-4c0,0-0.2-3.2-4-2.2c0,0-2.4,1.8-2.6,4.8
			c0,0-8.1,8.7-9.3,11.5c0,0-5.4,3.4-5.8,5.4c0,0,0.2,1.2,2.2,3.2l8.6,7.8c0,0,2,2.6,2.4,4.2c0,0,1.1,2.2,2.1,2.9h-47
			c1.1-1.4,2.8-3.9,4.3-5.7c0,0,5.4-7.4,10.7-7.2c0,0,2.2-3.2,0.2-5c0,0-7.1-4.6-11.1-8.3c-4-3.8-7.9-8.7-7.9-12.3
			c0,0-1.8-3.4-3.6-2.8c-1.8,0.6-2.2,2.6-2.4,3.8c0,0-2.4,4.2-7.4,4.6c0,0,1.2-3.4-1.8-5c-3-1.6-5.2,0-6.2,0.6c0,0,1.2-5.4-8.3-2.2
			c0,0-4.2,3.8-5,6c0,0-4.1,0.7-6.9-3.6c0.1,0,0.1,0,0.2-0.1c58.2-20.6,95.9-7.9,109.7-1.3C494.3,166.9,492.2,169.1,491.7,170.6
			 M501.6,169.6c0,0-3.8,2.8-3.6,7.2c0.2,4.4,1.6,5.4,1.6,5.4s2.3,3.4,1.3,3.9c-1,0.6-4.1,0.3-4.1,0.3s-5.2-5.5-4.1-11.3
			c1.7-8.6,6.9-9.2,6.9-9.2s3.7-1.1,3.5,1.9C503.1,169,502.6,168.8,501.6,169.6 M510.5,171.4c-3-0.6-4,2-4,2
			c-2.2,4.2,2,7.4,5.8,11.1c3.8,3.8,5.4,7,3.2,11.5c-2.2,4.6-11.1,6-14.1,3.2c-3-2.8-2-9.3,4.2-10.1c6.2-0.8,4.6,4.8,4.6,4.8
			c-3.2,3.8-4.4,0.4-4.4,0.4c1.8-0.6,3.3-3.3-0.5-1.9c-3.8,1.4-1.3,3.7-1.3,3.7c3.9,3.4,6.9,0.3,8.7-1.8c1.8-2.2,0.4-5.7-3.6-7.3
			c-4-1.6-7.4-3.4-8.4-7.8c-1.4-6.2,1.8-8.2,5-10.8C508.8,165.8,510.5,171.4,510.5,171.4 M615.8,166.6c0,0-2.4,4.2-7.3,4.6
			c0,0,1.2-3.4-1.8-5c-3-1.6-5.2,0-6.2,0.6c0,0,1.2-5.4-8.3-2.2c0,0-4.2,3.8-5,6c0,0-4.4,0.8-7.2-4c0,0-0.2-3.2-4-2.2
			c0,0-2.4,1.8-2.6,4.8c0,0-8.2,8.7-9.3,11.5c0,0-5.4,3.4-5.8,5.4c0,0,0.2,1.2,2.2,3.2l8.6,7.8c0,0,2,2.6,2.4,4.2
			c0,0,1.1,2.2,2.1,2.9h-43.5c1.1-1.4,2.8-3.9,4.3-5.7c0,0,5.4-7.4,10.7-7.2c0,0,2.2-3.2,0.2-5c0,0-7.2-4.6-11.1-8.3
			c-4-3.8-8-8.7-8-12.3c0,0-1.8-3.4-3.6-2.8c-1.8,0.6-2.2,2.6-2.4,3.8c0,0-2.4,4.2-7.3,4.6c0,0,1.2-3.4-1.8-5
			c-0.2-0.1-0.4-0.2-0.7-0.3c12.8-6.3,49.2-19.3,105.7-0.7C616,165.8,615.9,166.2,615.8,166.6 M634,184.8c0,0,5.1,3.5,1.1,6.1
			c0,0-8.1,6.9-10.6,12.2c0,0-2.1,4.1-6.5,0.3c0,0-5.3-0.9-4.4-3.8c0.9-2.9,5.1-0.5,6,0.4c0,0,2.4,0.9,4.9-4c0,0,0.7-2.7,3.1-3.8
			c0,0,4.6-4,0.2-6.7c-4.4-2.7-6.7-4.9-7.3-7.2c-0.7-2.2-1.5-5.7-4.9-3.5c-1.7,1.4-8.1,5.8-9.6,5.1c0,0-3.5-3.5-0.9-5.1
			c0,0,6-0.7,8.7-3.6c0,0,6.3-4.8,7.2,0.3C620.9,171.8,627.7,179.9,634,184.8 M720,204.9l0.9,3.5l0.9,3.7l0.8,3.4l0.4,1.5l0.4,1.6
			l0.3,1.1l0.8,3.1l48.6,195.7c0,0-40.4,23.3-99.4,28c-29.4,2.3-49.9-1.1-68.7-3.3v-71.2h34.2v-65.7h25.4V204.2h-38.9
			c1-1.4,2.8-3.9,4.3-5.7c0,0,5.4-7.4,10.7-7.2c0,0,2.2-3.2,0.2-5c0,0-7.2-4.6-11.1-8.3c-3.4-3.2-6.8-7.3-7.7-10.7
			c73.3,25.8,75,15.1,90.4,7.3l3.1,12.4l0.6,2.6L720,204.9z M732.4,218.1l0.3,1.3l0.7,2.9l51.3,206.6c0,0-40.4,23.3-99.4,28
			c-35.6,2.8-58.2-2.9-80.4-4.4v-5.2c19.1,2.2,40.1,5.6,70,3.3c60.8-4.8,102.5-28.8,102.5-28.8L728,222.6l-0.7-2.9l-0.3-1.4
			l-0.4-1.5l-0.3-1.2l-0.9-3.7l-1.2-4.6l-0.8-3.1l-4.1-16.5c1.5-0.9,3.1-1.8,4.9-2.7l4.3,17.4l0.6,2.6l1.7,6.8l0.9,3.7l0.3,1.2
			L732.4,218.1z M633.8,365.9H605v-58h28.8V365.9z M605,277H658v22.6H605V277z M587.1,175.8c-1.4,1.1-4.3-1.1-4.3-1.1
			c-2.5-1.8-4.8-0.2-5.9,1.6c-1.1,1.8-3.8,4.8-3.8,4.8c-5.7,2.5-1.8,4.8-1.1,5.4c0.7,0.7,0,0,2.7,3.6c2.7,3.6,0.6,3.7,2.6,5.2
			c2.9,2.2,5.1-0.3,5.1-0.3c1.8-1.8,6.3-1.4,6.3-1.4c0,1.1,0.6,2.7-2.9,3.5c-3.3,0.8-8.1,3.6-8.1,3.6c-3.2,1.8-4.8-2.1-4.8-2.1
			c0-4.1-9.3-11.3-9.3-11.3s-1.1-0.7-1.1-1.8c0-1.1,6-6.5,6-6.5c3.2-2.9,4.5-4,7-7.9c2.5-3.8,5.4-0.7,5.4-0.7l2.8,1.6
			C586.8,173.1,588.4,174.7,587.1,175.8 M576.2,181.1c0-2.3,2.3-3,4-3c1.7,0,5.8,1.5,6.6,4.9c0,0,0.7,1.5-7.5,0.3
			C579.4,183.2,576.2,183.3,576.2,181.1 M582.5,184.9c0,0,5.7,0.4,2.4,2.9c0,0-6.5,1.7-9,0.6c0,0-3.4-4.6,0-4.3
			C575.8,184.1,578.2,184.1,582.5,184.9 M588.3,189.3c0,0,0.3,2.7-1.1,2.6c-1.4-0.1-4.2,0.5-4.8,1.1c-0.6,0.6-0.7,1.7-2.3,1.2
			c-3.7-0.6-1.9-3.5-1.9-3.5C581,188.2,588.3,189.3,588.3,189.3 M597.2,169.6c0,0-3.8,2.8-3.6,7.2c0.2,4.4,1.6,5.4,1.6,5.4
			s2.3,3.4,1.3,3.9c-1,0.6-4.1,0.3-4.1,0.3s-5.3-5.5-4.1-11.3c1.7-8.6,6.9-9.2,6.9-9.2s3.7-1.1,3.5,1.9
			C598.7,169,598.1,168.8,597.2,169.6 M619,183.3c-1.2,0.1-4.7,0.8-5.8,0.9c-1.2,0.1-1.5,1.6-2.7,0.6c-1.4-1.2-2.7-3.1-2.7-3.1
			s8.7-5.2,9.8-4.4c0,0,0.9,1,1.2,2.2c0.3,1.3,1.4,1.9,1.7,2.5C620.9,182.6,620.2,183.2,619,183.3 M593.6,187.7c4.2,0.2,0.8,2,0.8,2
			s-4.4,4-0.8,9.3c3.6,5.4,12.5,4,17.1,2.2c0,0,1.6,1.4,3.6,2.9h-37.8c0.9-0.2,2.1-0.6,3.6-1.5l8.1-4.2c0,0,2,0,2.2-2
			C590.4,196.5,589.4,187.5,593.6,187.7 M621.2,196.3c-3,2.7-6.5,0.5-6.5,0.5l-0.3-1.3c-0.6-2.7,4.3-3.4,4.3-3.4
			c3.5-0.7,4,0.4,4,0.4C624.5,193.6,621.2,196.3,621.2,196.3 M613.1,189.3c-1.4-3.6,3.9-3.8,3.9-3.8s1-0.3,3.7-0.8
			c2.7-0.5,3.1,0.7,3.1,0.7c2.7,1.2,5.5,3.6,2.8,4.4C623.9,190.6,614.1,191.9,613.1,189.3 M607.9,184.5c3.8,3.8,5.4,7,3.2,11.5
			c-2.2,4.6-11.1,6-14.1,3.2c-3-2.8-2-9.3,4.2-10.1c6.2-0.8,4.6,4.8,4.6,4.8c-3.2,3.8-4.4,0.4-4.4,0.4c1.8-0.6,3.3-3.3-0.5-1.9
			c-3.8,1.4-1.3,3.7-1.3,3.7c3.9,3.4,6.9,0.3,8.6-1.8c1.8-2.2,0.4-5.7-3.6-7.3c-4-1.6-7.4-3.4-8.4-7.8c-1.4-6.2,1.8-8.2,5-10.8
			c3.2-2.6,4.9,3,4.9,3c-3-0.6-4,2-4,2C599.9,177.6,604.1,180.8,607.9,184.5 M518.7,204.2h-13.4v-1.4c3.5,0.3,7.3-0.5,9.8-1.5
			C515.1,201.2,516.7,202.7,518.7,204.2 M521.4,185.5c0,0,1-0.3,3.8-0.8c2.7-0.5,3.1,0.7,3.1,0.7c2.7,1.2,5.5,3.6,2.8,4.4
			c-2.7,0.8-12.5,2.1-13.5-0.5C516.1,185.7,521.4,185.5,521.4,185.5 M522,177.2c0,0,0.9,1,1.2,2.2c0.3,1.3,1.4,1.9,1.7,2.5
			c0.4,0.6-0.3,1.2-1.5,1.3c-1.2,0.1-4.7,0.8-5.8,0.9c-1.2,0.1-1.5,1.6-2.7,0.6c-1.4-1.2-2.7-3.1-2.7-3.1S520.9,176.4,522,177.2
			 M518.9,195.5c-0.6-2.7,4.3-3.4,4.3-3.4c3.5-0.7,4,0.4,4,0.4c1.6,1.1-1.6,3.8-1.6,3.8c-3,2.7-6.5,0.5-6.5,0.5L518.9,195.5z
			 M523.9,200.2c0,0,2.4,0.9,4.9-4c0,0,0.7-2.7,3.1-3.8c0,0,4.6-4,0.2-6.7c-4.4-2.7-6.7-4.9-7.3-7.2c-0.7-2.2-1.5-5.7-4.9-3.5
			c-1.7,1.4-8.1,5.8-9.6,5.1c0,0-3.5-3.5-0.9-5.1c0,0,6-0.7,8.7-3.6c0,0,6.3-4.8,7.2,0.3c0,0,6.8,8.1,13,13c0,0,5.1,3.5,1.1,6.1
			c0,0-8.2,6.9-10.6,12.2c0,0-2.1,4.1-6.5,0.3c0,0-5.3-0.9-4.4-3.8C518.8,196.8,523,199.3,523.9,200.2 M498,187.7
			c4.2,0.2,0.8,2,0.8,2s-4.4,4-0.8,9.3c0.8,1.2,1.8,2,3,2.6l0,2.6h-20.2c0.9-0.2,2.1-0.6,3.7-1.5l8.1-4.2c0,0,2,0,2.2-2
			C494.9,196.5,493.9,187.5,498,187.7 M491.5,175.8c-1.4,1.1-4.3-1.1-4.3-1.1c-2.5-1.8-4.7-0.2-5.9,1.6c-1.1,1.8-3.9,4.8-3.9,4.8
			c-5.7,2.5-1.8,4.8-1.1,5.4c0.7,0.7,0,0,2.7,3.6c2.7,3.6,0.6,3.7,2.6,5.2c2.8,2.2,5.1-0.3,5.1-0.3c1.8-1.8,6.3-1.4,6.3-1.4
			c0,1.1,0.6,2.7-2.9,3.5c-3.3,0.8-8.1,3.6-8.1,3.6c-3.2,1.8-4.8-2.1-4.8-2.1c0-4.1-9.3-11.3-9.3-11.3s-1.1-0.7-1.1-1.8
			c0-1.1,6.1-6.5,6.1-6.5c3.2-2.9,4.5-4,7-7.9c2.5-3.8,5.4-0.7,5.4-0.7l2.8,1.6C491.2,173.1,492.8,174.7,491.5,175.8 M482.6,190.7
			c2.8-2.5,10.1-1.4,10.1-1.4s0.3,2.7-1.1,2.6c-1.4-0.1-4.2,0.5-4.9,1.1c-0.6,0.6-0.7,1.7-2.3,1.2
			C480.7,193.6,482.6,190.7,482.6,190.7 M480.6,181.1c0-2.3,2.3-3,4-3c1.7,0,5.8,1.5,6.6,4.9c0,0,0.7,1.5-7.5,0.3
			C483.8,183.2,480.6,183.3,480.6,181.1 M486.9,184.9c0,0,5.8,0.4,2.4,2.9c0,0-6.5,1.7-9,0.6c0,0-3.4-4.6,0-4.3
			C480.2,184.1,482.6,184.1,486.9,184.9 M399,187.7c4.2,0.2,2,2.1,2,2.1s-4.8,5-2,9.3c3.6,5.4,12.5,4,17.1,2.2c0,0,1.6,1.4,3.6,2.9
			h-37.9c0.9-0.2,2.1-0.6,3.7-1.5l8.1-4.2c0,0,2,0,2.2-2C395.8,196.5,394.8,187.5,399,187.7 M407.6,173.4c-2.2,4.2,2,7.4,5.8,11.1
			c3.8,3.8,5.4,7,3.2,11.5c-2.2,4.6-11.1,6-14.1,3.2c-3-2.8-2-9.3,4.2-10.1c6.2-0.8,4.6,4.8,4.6,4.8c-3.2,3.8-4.4,0.4-4.4,0.4
			c1.8-0.6,3.3-3.3-0.5-1.9c-3.8,1.4-1.3,3.7-1.3,3.7c3.9,3.4,6.9,0.3,8.6-1.8c1.8-2.2,0.4-5.7-3.6-7.3c-4-1.6-7.4-3.4-8.3-7.8
			c-1.4-6.2,1.8-8.2,4.9-10.8c3.2-2.6,4.9,3,4.9,3C408.6,170.8,407.6,173.4,407.6,173.4 M418.9,199.7c0.9-2.9,5.1-0.5,6,0.4
			c0,0,2.5,0.9,4.9-4c0,0,0.7-2.7,3.1-3.8c0,0,4.7-4,0.2-6.7c-4.4-2.7-6.7-4.9-7.3-7.2c-0.7-2.2-1.5-5.7-4.9-3.5
			c-1.7,1.4-8.1,5.8-9.6,5.1c0,0-3.5-3.5-0.9-5.1c0,0,6-0.7,8.7-3.6c0,0,6.3-4.8,7.2,0.3c0,0,6.8,8.1,13,13c0,0,5.1,3.5,1.1,6.1
			c0,0-8.1,6.9-10.6,12.2c0,0-2.1,4.1-6.5,0.3C423.4,203.5,418.1,202.6,418.9,199.7 M426.7,196.3c-3,2.7-6.5,0.5-6.5,0.5l-0.3-1.3
			c-0.5-2.7,4.3-3.4,4.3-3.4c3.5-0.7,4,0.4,4,0.4C429.9,193.6,426.7,196.3,426.7,196.3 M415.9,184.7c-1.4-1.2-2.7-3.1-2.7-3.1
			s8.7-5.2,9.8-4.4c0,0,0.9,1,1.2,2.2c0.3,1.3,1.4,1.9,1.8,2.5c0.4,0.6-0.3,1.2-1.5,1.3c-1.2,0.1-4.7,0.8-5.8,0.9
			C417.5,184.2,417.1,185.7,415.9,184.7 M422.4,185.5c0,0,1-0.3,3.7-0.8c2.7-0.5,3.1,0.7,3.1,0.7c2.7,1.2,5.5,3.6,2.8,4.4
			c-2.7,0.8-12.5,2.1-13.5-0.5C417.2,185.7,422.4,185.5,422.4,185.5 M393.7,175.1c1.7-8.6,6.9-9.2,6.9-9.2s3.7-1.1,3.5,1.9
			c0,1.2-0.6,1-1.6,1.8c0,0-3.8,2.8-3.6,7.2c0.2,4.4,1.6,5.4,1.6,5.4s2.3,3.4,1.3,3.9c-1,0.6-4.1,0.3-4.1,0.3
			S392.6,180.9,393.7,175.1 M383.6,190.7c2.8-2.5,10.1-1.4,10.1-1.4s0.3,2.7-1.1,2.6c-1.4-0.1-4.2,0.5-4.8,1.1
			c-0.6,0.6-0.7,1.7-2.3,1.2C381.8,193.6,383.6,190.7,383.6,190.7 M381.6,181.1c0-2.3,2.4-3,4-3c1.7,0,5.8,1.5,6.7,4.9
			c0,0,0.7,1.5-7.5,0.3C384.8,183.2,381.6,183.3,381.6,181.1 M387.9,184.9c0,0,5.8,0.4,2.4,2.9c0,0-6.5,1.7-9,0.6c0,0-3.4-4.6,0-4.3
			C381.3,184.1,383.6,184.1,387.9,184.9 M345,210.3h313.6v59H345V210.3z M564.1,435.4V299.6H345V277h219.1h33.1v22.6v135.8v25.4
			h-191v-25.4H564.1z M556,403l0.1,25.9H508l-0.1-25.9H556z M556,372.1l0.1,25.9H508l-0.1-25.9H556z M507.9,306.9H556l0.1,25.9H508
			L507.9,306.9z M556,340l0.1,25.9H508l-0.1-25.9H556z M798.5,444.1c0,0-34.1,19.6-85.4,26.5v-5.3H605v-8.6
			c22.5,1.7,45.6,7.3,81.7,4.4c60.8-4.8,102.5-28.8,102.5-28.8l-52.2-210.1l-0.8-3.4l-0.2-0.9l-0.3-1.1l-0.4-1.5l-0.9-3.3l-2.1-8.6
			c1.8-1.1,3.6-2.2,5.7-3.2l2.9,11.8l0.5,1.8l0.7,2.8l0,0.2l0.2,0.8l1.1,4.2L798.5,444.1z M766.9,252.8l65.6,232.4
			c0,0-55.1,11.6-101.4,5.8c-6.5-0.8-12.4-1.4-18-1.8v-2.3c0.7-0.1,1.4-0.1,2.2-0.2c60.8-4.8,102.5-28.8,102.5-28.8L766.9,252.8z
			 M813.4,454.6c0,0-40.4,23.3-99.4,28c-0.3,0-0.6,0-0.9,0.1v-7.7c53.8-6.8,89.8-27.5,89.8-27.5l-56-225.6l-1-4.2l-0.2-0.6l-0.4-1.8
			c1.7-1,3.4-2,5.2-3c0.8-0.4,1.6-0.9,2.4-1.3l0.3,1.3l1.2,4.8l0.1,0.3l1,4.2L813.4,454.6z M299.2,470.8h407.3v35.3H299.2V470.8z
			 M365,523.5V819c-117.3-49.7-201.6-162.3-210.4-295.6H365z M293.7,486.9v8.6c-3.8,0-7.9,0-12.3-0.2c-42.6-1.1-107-10.1-107-10.1
			L240,252.8l-51,205.2c0,0,41.6,24,102.4,28.8C292.2,486.8,292.9,486.8,293.7,486.9 M292.8,482.5c-59-4.7-99.4-28-99.4-28
			l57.9-233.2l1-4.2l0.1-0.3l1.3-5.1l0.2-1c0.7,0.3,1.3,0.7,1.9,1c2,1.1,3.8,2.2,5.7,3.3l-0.4,1.8l-0.2,0.6l-1,4.2l-56.1,225.6
			c0,0,35.9,20.7,89.8,27.5v7.7C293.4,482.6,293.1,482.6,292.8,482.5 M240.1,215.8l6.4,1.1L169.6,489c0,0,59.4,8.5,117.3,11.8
			c2.4,0.1,4.6,0.2,6.8,0.3v6.7L153.6,504L240.1,215.8z M200.9,325.9L154.3,481C157.4,424.7,174,371.9,200.9,325.9 M170.5,289.1
			l-2.5-0.9c-1.3-2.8-1.4-6.3-0.2-10.1c3.8-0.1,2.5-3.8,7.2-5.2l7.6,3.6l0.1,5C181.7,285.1,175.2,289,170.5,289.1 M202,259
			c2.6,3.7,8.9,4.9,11.2,10.8l-25.1,36.6c-1-3.8-7.6-4.9-9.9-11.1L202,259z M810.9,705.8l-28.7,36c0-2.5-7.8-3.3-9.4-6.8l25.5-35.4
			l5-0.1C803.3,702.2,809.6,702.1,810.9,705.8 M627.2,822.1V523.5h217.9C836,659.5,748.4,774.1,627.2,822.1 M891.7,379.3
			c-4.9,5.1-9.9,9.9-14.5,17.6c3.6,8.4,17.3,2.2,22.2,9.7c1.3,2.2,3.9,5.9,1.5,11l-48.2,11.8c-2.3-5-3.6-9.7-2.5-16
			c3.7-3.8,13.5-0.2,14.6-7.8l-6-3.3c-0.1-2.5,3.4-5.1,0.8-8.8c-3.8,0.1-7.5,2.6-12.2,5.2c-6.3-2.4-5.2-11.2-7.5-16.2l47.9-14.4
			C887.8,369.3,892.6,374.3,891.7,379.3 M909.4,474.3l-50.6,20.4c-0.1-3.8-0.1-8.5-0.3-14.8c1.6-1,6.2-4.8,11.2-4.9l2.4-5.1
			c-1.4-6-8.9-7.1-14-9.5c-5.1-2.4-0.2-10.1-3.7-16c11-1.8,24.7,13.1,34.7,4.4c4.7-2.9,10.9-4,17.2-3.1
			C907.8,454.5,909.2,464.2,909.4,474.3 M499.8,59.6c-243.4,0-440.6,197.3-440.6,440.6c0,243.4,197.3,440.6,440.6,440.6
			c243.3,0,440.6-197.3,440.6-440.6C940.4,256.9,743.2,59.6,499.8,59.6"/>
		<path class="st2" d="M280.3,690.9c-11.3,0-20.4,9.1-20.4,20.4c0,11.3,9.1,20.4,20.4,20.4c11.2,0,20.4-9.1,20.4-20.4
			C300.7,700.1,291.6,690.9,280.3,690.9"/>
		<path class="st2" d="M263.4,693.9c4.7-3.8,1.2-7.6,1.2-7.6c-4.7-2.3-2.9-10-2.9-10c-9.4,3.5-6.5,15.3-6.5,15.3
			C256.4,695.1,260.5,696.3,263.4,693.9"/>
		<path class="st2" d="M252.5,612.1c0,0,11.2,15.5,12.8,38.4l2.8,0.4l1.5-1.5c0,0,2.1-9.6-2.7-18.7c0,0-4.8-6.9-1.6-9.1
			c0,0,4.3-2.1,6.4,9.1c0,0,2.1,11.2,2.7,17.1l2.1,0.5l1.6-1.1c0,0,0.5-11.7-0.5-17.6c0,0-1.6-11.7,2.7-11.7c4.3,0,1.6,9.6,1.6,12.8
			l1.1,17.6l2.4,0.9l2.4-0.9c0,0-0.5-17.1,3.2-21.3c0,0,2.1-6.4,5.3-3.2c3.2,3.2-0.5,4.3-2.1,5.9c0,0-3.7,5.3-2.7,19.7l2.5,1.7
			l3.4-1.1c0,0-1.1-29.9,19.2-42.7c0,0,15.5-6.9,23.5,3.2c0,0,9.1-37.3-27.7-39.5c0,0-19.7-2.1-31,21.9c0,0-6.4-23.5-34.2-23.5
			c-27.7,0-29.9,31.5-24,41.6c0,0,1.2-1.4,3.2-2.9c0.1-0.1,0.3-0.2,0.4-0.3C231.8,604.2,241.5,600.3,252.5,612.1"/>
		<path class="st2" d="M273.8,672.5c-4.7,0-6.7,1.5-8.5,5c-1.8,3.5,0.9,10.9,7.1,10c6.2-0.9,5.3-5.3,4.4-7.3c-0.9-2.1-0.9-5-0.9-5
			C277.9,672.8,273.8,672.5,273.8,672.5"/>
		<path class="st2" d="M278.1,653.1c-35.2,0.5-24,21.3-24,21.3l2.8-2c-1.6-2.7-1.9-3.7,1.3-4.9c4.5-1.7,3.3,3.7,3.3,3.7l5.4-1.2
			c0,0-1.6-3.7,3.2-4.8c4.8-1.1,2.4,4.1,5.6,4.1c2.3,0,4.6,0.3,4.6,0.3s-1.1-4,4.2-4.2c5.2-0.2,3.5,4.2,3.5,4.2
			c3.5,0.8,6.1,0.8,6.1,0.8c1.1-4.8,3.2-3.2,3.2-3.2c3,0.4,1.7,3,2.8,3.6c0.8,0.4,2.8,0.6,3.2-0.2c0.5-0.9,1.2-3.4,0.2-7.4
			C300.8,652.6,278.1,653.1,278.1,653.1"/>
		<path class="st2" d="M287.3,687.1c2.1-0.6,3.5,2.1,4.4-6.5c0.9-8.5-8.5-7.6-8.5-7.6c-4.4,0.3-4.1,3.2-4.1,3.2
			c1.5,0.9,2.3,4.7,2.1,7C280.9,685.7,285.3,687.7,287.3,687.1"/>
		<path class="st2" d="M294.9,683.7c-1.2,1.2-3.8,6.4,1.5,8.5c5.3,2,6.7-3.2,6.7-6.5s-0.9-8.2-7.9-8.2
			C295.2,677.5,296.1,682.5,294.9,683.7"/>
		<path class="st0" d="M303.3,670.7c-0.4,0.8-2.4,0.6-3.2,0.2c-1.1-0.6,0.2-3.2-2.8-3.6c0,0-2.1-1.6-3.2,3.2c0,0-2.6,0-6.1-0.8
			c0,0,1.7-4.4-3.5-4.2c-5.4,0.2-4.2,4.2-4.2,4.2s-2.3-0.3-4.6-0.3c-3.2,0-0.8-5.2-5.6-4.1c-4.8,1.1-3.2,4.8-3.2,4.8l-5.4,1.2
			c0,0,1.3-5.5-3.3-3.7c-3.3,1.3-2.9,2.3-1.3,4.9l-2.8,2c0,0-11.2-20.8,24-21.3c0,0,22.7-0.5,25.4,10.1
			C304.5,667.3,303.8,669.8,303.3,670.7 M296.3,692.2c-5.3-2.1-2.6-7.3-1.5-8.5c1.2-1.2,0.3-6.2,0.3-6.2c7,0,7.9,5,7.9,8.2
			S301.6,694.3,296.3,692.2 M279.1,676.3c0,0-0.3-2.9,4.1-3.2c0,0,9.4-0.9,8.5,7.6c-0.9,8.5-2.4,5.9-4.4,6.5
			c-2.1,0.6-6.5-1.5-6.2-3.8C281.5,681,280.6,677.2,279.1,676.3 M276.8,680.1c0.9,2,1.8,6.4-4.4,7.3c-6.2,0.9-8.8-6.5-7.1-10
			c1.8-3.5,3.8-5,8.5-5c0,0,4.1,0.3,2.1,2.7C275.9,675.1,275.9,678,276.8,680.1 M264.6,686.3c0,0,3.5,3.8-1.2,7.6
			c-2.9,2.3-7,1.2-8.2-2.3c0,0-2.9-11.7,6.4-15.3C261.7,676.3,259.9,683.9,264.6,686.3 M280.3,731.7c-11.3,0-20.4-9.1-20.4-20.4
			c0-11.3,9.1-20.4,20.4-20.4c11.2,0,20.4,9.1,20.4,20.4C300.7,722.6,291.6,731.7,280.3,731.7 M226.3,608.1c-2,1.5-3.2,2.9-3.2,2.9
			c-5.9-10.1-3.7-41.6,24-41.6c27.7,0,34.1,23.5,34.1,23.5c11.2-24,31-21.9,31-21.9c36.8,2.1,27.7,39.5,27.7,39.5
			c-8-10.1-23.5-3.2-23.5-3.2c-20.3,12.8-19.2,42.7-19.2,42.7l-3.4,1.1l-2.5-1.7c-1.1-14.4,2.7-19.7,2.7-19.7
			c1.6-1.6,5.3-2.7,2.1-5.9c-3.2-3.2-5.3,3.2-5.3,3.2c-3.7,4.3-3.2,21.3-3.2,21.3l-2.4,0.9l-2.4-0.9l-1.1-17.6
			c0-3.2,2.7-12.8-1.6-12.8c-4.3,0-2.7,11.7-2.7,11.7c1.1,5.9,0.5,17.6,0.5,17.6l-1.6,1.1l-2.1-0.5c-0.5-5.9-2.7-17.1-2.7-17.1
			c-2.1-11.2-6.4-9.1-6.4-9.1c-3.2,2.1,1.6,9.1,1.6,9.1c4.8,9.1,2.7,18.7,2.7,18.7l-1.5,1.5l-2.8-0.4c-1.6-22.9-12.8-38.4-12.8-38.4
			c-11-11.7-20.7-7.9-25.7-4.3C226.6,607.9,226.5,608,226.3,608.1 M327.2,568.3c-28.3-10.7-45.9,12.3-45.9,12.3
			c-26.7-33.1-56.5-9.1-56.5-9.1c-20.8,23.5-1.1,48-1.1,48c4.3-14.4,18.2-8,18.2-8c16,6.4,17.7,39.8,17.7,39.8s-6.7,1.9-10.4,9.4
			c-3.7,7.5,2.3,18.6,2.3,18.6s-1.6-1.6-1.6,8.5c0,8.2,5.9,11.5,8.2,12.5c-1.7,3.3-2.6,7-2.6,11c0,13.8,11.2,24.9,24.9,24.9
			c13.8,0,24.9-11.2,24.9-24.9c0-5.2-1.6-10-4.3-14c1.7-1.4,5.4-4.7,7-9.5c2.1-6.4-3.7-12.3-3.7-12.3c6.4-3.7,4.8-13.9,3.7-17.1
			c-1.1-3.2-6.4-5.9-6.4-5.9c1.6-19.7,5.3-34.7,17.6-41.1c12.3-6.4,23.5,7.5,23.5,7.5C344.8,614.7,355.5,579,327.2,568.3"/>
		<path class="st2" d="M510.2,683.7c-1.2,1.2-3.8,6.4,1.5,8.5c5.3,2,6.7-3.2,6.7-6.5s-0.9-8.2-7.9-8.2
			C510.5,677.5,511.3,682.5,510.2,683.7"/>
		<path class="st2" d="M489.1,672.5c-4.7,0-6.8,1.5-8.5,5c-1.8,3.5,0.9,10.9,7,10c6.2-0.9,5.3-5.3,4.4-7.3c-0.9-2.1-0.9-5-0.9-5
			C493.2,672.8,489.1,672.5,489.1,672.5"/>
		<path class="st2" d="M495.6,690.9c-11.3,0-20.4,9.1-20.4,20.4c0,11.3,9.1,20.4,20.4,20.4c11.3,0,20.4-9.1,20.4-20.4
			C516,700.1,506.9,690.9,495.6,690.9"/>
		<path class="st2" d="M502.6,687.1c2.1-0.6,3.5,2.1,4.4-6.5c0.9-8.5-8.5-7.6-8.5-7.6c-4.4,0.3-4.1,3.2-4.1,3.2
			c1.5,0.9,2.4,4.7,2.1,7C496.2,685.7,500.6,687.7,502.6,687.1"/>
		<path class="st2" d="M493.4,653.1c-35.2,0.5-24,21.3-24,21.3l2.8-2c-1.6-2.7-1.9-3.7,1.3-4.9c4.5-1.7,3.3,3.7,3.3,3.7l5.4-1.2
			c0,0-1.6-3.7,3.2-4.8c4.8-1.1,2.4,4.1,5.6,4.1c2.3,0,4.6,0.3,4.6,0.3s-1.1-4,4.2-4.2c5.2-0.2,3.5,4.2,3.5,4.2
			c3.5,0.8,6.1,0.8,6.1,0.8c1.1-4.8,3.2-3.2,3.2-3.2c3,0.4,1.7,3,2.8,3.6c0.8,0.4,2.8,0.6,3.2-0.2c0.5-0.9,1.2-3.4,0.2-7.4
			C516.1,652.6,493.4,653.1,493.4,653.1"/>
		<path class="st2" d="M478.7,693.9c4.7-3.8,1.2-7.6,1.2-7.6c-4.7-2.3-2.9-10-2.9-10c-9.4,3.5-6.5,15.3-6.5,15.3
			C471.7,695.1,475.8,696.3,478.7,693.9"/>
		<path class="st2" d="M527.5,571c0,0-19.7-2.1-30.9,21.9c0,0-6.4-23.5-34.2-23.5c-27.7,0-29.9,31.5-24,41.6c0,0,13.3-16,29.3,1.1
			c0,0,11.2,15.5,12.8,38.4l2.8,0.4l1.5-1.5c0,0,2.1-9.6-2.7-18.7c0,0-4.8-6.9-1.6-9.1c0,0,4.3-2.1,6.4,9.1c0,0,2.1,11.2,2.7,17.1
			l2.1,0.5l1.6-1.1c0,0,0.5-11.7-0.5-17.6c0,0-1.6-11.7,2.7-11.7c4.3,0,1.6,9.6,1.6,12.8l1.1,17.6l2.4,0.9l2.4-0.9
			c0,0-0.5-17.1,3.2-21.3c0,0,2.1-6.4,5.3-3.2c3.2,3.2-0.5,4.3-2.1,5.9c0,0-3.7,5.3-2.7,19.7l2.5,1.7l3.4-1.1
			c0,0-1.1-29.9,19.2-42.7c0,0,15.5-6.9,23.5,3.2C555.3,610.4,564.4,573.1,527.5,571"/>
		<path class="st0" d="M518.6,670.7c-0.4,0.8-2.4,0.6-3.2,0.2c-1.1-0.6,0.2-3.2-2.8-3.6c0,0-2.1-1.6-3.2,3.2c0,0-2.6,0-6.1-0.8
			c0,0,1.7-4.4-3.5-4.2c-5.4,0.2-4.2,4.2-4.2,4.2s-2.3-0.3-4.6-0.3c-3.2,0-0.8-5.2-5.6-4.1c-4.8,1.1-3.2,4.8-3.2,4.8l-5.4,1.2
			c0,0,1.3-5.5-3.3-3.7c-3.3,1.3-2.9,2.3-1.3,4.9l-2.8,2c0,0-11.2-20.8,24-21.3c0,0,22.7-0.5,25.4,10.1
			C519.8,667.3,519.1,669.8,518.6,670.7 M511.6,692.2c-5.3-2.1-2.6-7.3-1.5-8.5c1.2-1.2,0.3-6.2,0.3-6.2c7,0,7.9,5,7.9,8.2
			S516.9,694.3,511.6,692.2 M494.4,676.3c0,0-0.3-2.9,4.1-3.2c0,0,9.4-0.9,8.5,7.6c-0.9,8.5-2.4,5.9-4.4,6.5
			c-2.1,0.6-6.4-1.5-6.2-3.8C496.8,681,495.9,677.2,494.4,676.3 M492,680.1c0.9,2,1.8,6.4-4.4,7.3c-6.1,0.9-8.8-6.5-7-10
			c1.7-3.5,3.8-5,8.5-5c0,0,4.1,0.3,2.1,2.7C491.2,675.1,491.2,678,492,680.1 M477,676.3c0,0-1.8,7.6,2.9,10c0,0,3.5,3.8-1.2,7.6
			c-2.9,2.3-7,1.2-8.2-2.3C470.5,691.6,467.6,679.8,477,676.3 M495.6,731.7c-11.2,0-20.4-9.1-20.4-20.4c0-11.3,9.1-20.4,20.4-20.4
			c11.3,0,20.4,9.1,20.4,20.4C516,722.6,506.9,731.7,495.6,731.7 M555.3,610.4c-8-10.1-23.5-3.2-23.5-3.2
			c-20.3,12.8-19.2,42.7-19.2,42.7l-3.4,1.1l-2.5-1.7c-1.1-14.4,2.7-19.7,2.7-19.7c1.6-1.6,5.3-2.7,2.1-5.9
			c-3.2-3.2-5.3,3.2-5.3,3.2c-3.7,4.3-3.2,21.3-3.2,21.3l-2.4,0.9l-2.4-0.9l-1.1-17.6c0-3.2,2.7-12.8-1.6-12.8
			c-4.3,0-2.7,11.7-2.7,11.7c1.1,5.9,0.5,17.6,0.5,17.6l-1.6,1.1l-2.1-0.5c-0.5-5.9-2.7-17.1-2.7-17.1c-2.1-11.2-6.4-9.1-6.4-9.1
			c-3.2,2.1,1.6,9.1,1.6,9.1c4.8,9.1,2.7,18.7,2.7,18.7l-1.5,1.5l-2.8-0.4c-1.6-22.9-12.8-38.4-12.8-38.4
			c-16-17.1-29.3-1.1-29.3-1.1c-5.9-10.1-3.7-41.6,24-41.6c27.8,0,34.2,23.5,34.2,23.5c11.2-24,31-21.9,31-21.9
			C564.4,573.1,555.3,610.4,555.3,610.4 M542.5,568.3c-28.3-10.7-45.9,12.3-45.9,12.3c-26.7-33.1-56.6-9.1-56.6-9.1
			c-20.8,23.5-1.1,48-1.1,48c4.3-14.4,18.1-8,18.1-8c16,6.4,17.7,39.8,17.7,39.8s-6.7,1.9-10.4,9.4c-3.7,7.5,2.3,18.6,2.3,18.6
			s-1.6-1.6-1.6,8.5c0,8.2,5.9,11.5,8.2,12.5c-1.6,3.3-2.6,7-2.6,11c0,13.8,11.2,24.9,24.9,24.9c13.8,0,25-11.2,25-24.9
			c0-5.2-1.6-10-4.3-14c1.7-1.4,5.4-4.7,7-9.5c2.1-6.4-3.7-12.3-3.7-12.3c6.4-3.7,4.8-13.9,3.7-17.1c-1.1-3.2-6.4-5.9-6.4-5.9
			c1.6-19.7,5.4-34.7,17.6-41.1c12.3-6.4,23.5,7.5,23.5,7.5C560.1,614.7,570.8,579,542.5,568.3"/>
		<path class="st2" d="M712.5,690.9c-11.3,0-20.4,9.1-20.4,20.4c0,11.3,9.1,20.4,20.4,20.4c11.2,0,20.4-9.1,20.4-20.4
			C732.8,700.1,723.7,690.9,712.5,690.9"/>
		<path class="st2" d="M719.5,687.1c2.1-0.6,3.5,2.1,4.4-6.5c0.9-8.5-8.5-7.6-8.5-7.6c-4.4,0.3-4.1,3.2-4.1,3.2
			c1.5,0.9,2.4,4.7,2.1,7C713,685.7,717.4,687.7,719.5,687.1"/>
		<path class="st2" d="M695.6,693.9c4.7-3.8,1.2-7.6,1.2-7.6c-4.7-2.3-3-10-3-10c-9.4,3.5-6.5,15.3-6.5,15.3
			C688.5,695.1,692.6,696.3,695.6,693.9"/>
		<path class="st2" d="M705.9,672.5c-4.7,0-6.8,1.5-8.5,5c-1.8,3.5,0.9,10.9,7,10c6.2-0.9,5.3-5.3,4.4-7.3c-0.9-2.1-0.9-5-0.9-5
			C710,672.8,705.9,672.5,705.9,672.5"/>
		<path class="st2" d="M710.2,653.1c-35.2,0.5-24,21.3-24,21.3l2.8-2c-1.6-2.7-1.9-3.7,1.3-4.9c4.5-1.7,3.3,3.7,3.3,3.7l5.4-1.2
			c0,0-1.6-3.7,3.2-4.8c4.8-1.1,2.4,4.1,5.6,4.1c2.3,0,4.6,0.3,4.6,0.3s-1.1-4,4.2-4.2c5.2-0.2,3.5,4.2,3.5,4.2
			c3.5,0.8,6.1,0.8,6.1,0.8c1.1-4.8,3.2-3.2,3.2-3.2c3,0.4,1.7,3,2.8,3.6c0.8,0.4,2.8,0.6,3.2-0.2c0.5-0.9,1.2-3.4,0.2-7.4
			C733,652.6,710.2,653.1,710.2,653.1"/>
		<path class="st2" d="M744.4,571c0,0-19.7-2.1-30.9,21.9c0,0-6.4-23.5-34.2-23.5c-27.7,0-29.9,31.5-24,41.6c0,0,13.3-16,29.3,1.1
			c0,0,11.2,15.5,12.8,38.4l2.8,0.4l1.5-1.5c0,0,2.1-9.6-2.7-18.7c0,0-4.8-6.9-1.6-9.1c0,0,4.3-2.1,6.4,9.1c0,0,2.1,11.2,2.7,17.1
			l2.1,0.5l1.6-1.1c0,0,0.5-11.7-0.5-17.6c0,0-1.6-11.7,2.7-11.7c4.3,0,1.6,9.6,1.6,12.8l1.1,17.6l2.4,0.9l2.4-0.9
			c0,0-0.5-17.1,3.2-21.3c0,0,2.1-6.4,5.3-3.2c3.2,3.2-0.5,4.3-2.1,5.9c0,0-3.7,5.3-2.7,19.7l2.5,1.7l3.4-1.1
			c0,0-1.1-29.9,19.2-42.7c0,0,15.5-6.9,23.5,3.2C772.1,610.4,781.2,573.1,744.4,571"/>
		<path class="st2" d="M727,683.7c-1.2,1.2-3.8,6.4,1.5,8.5c5.3,2,6.7-3.2,6.7-6.5s-0.9-8.2-7.9-8.2
			C727.3,677.5,728.2,682.5,727,683.7"/>
		<path class="st0" d="M735.4,670.7c-0.4,0.8-2.4,0.6-3.2,0.2c-1.1-0.6,0.2-3.2-2.8-3.6c0,0-2.1-1.6-3.2,3.2c0,0-2.6,0-6.1-0.8
			c0,0,1.7-4.4-3.5-4.2c-5.4,0.2-4.2,4.2-4.2,4.2s-2.3-0.3-4.6-0.3c-3.2,0-0.8-5.2-5.6-4.1c-4.8,1.1-3.2,4.8-3.2,4.8l-5.4,1.2
			c0,0,1.3-5.5-3.3-3.7c-3.3,1.3-2.9,2.3-1.3,4.9l-2.8,2c0,0-11.2-20.8,24-21.3c0,0,22.7-0.5,25.4,10.1
			C736.6,667.3,735.9,669.8,735.4,670.7 M728.5,692.2c-5.3-2.1-2.6-7.3-1.5-8.5c1.2-1.2,0.3-6.2,0.3-6.2c7.1,0,7.9,5,7.9,8.2
			S733.8,694.3,728.5,692.2 M711.3,676.3c0,0-0.3-2.9,4.1-3.2c0,0,9.4-0.9,8.5,7.6c-0.9,8.5-2.3,5.9-4.4,6.5c-2,0.6-6.5-1.5-6.2-3.8
			C713.6,681,712.7,677.2,711.3,676.3 M708.9,680.1c0.9,2,1.8,6.4-4.4,7.3c-6.2,0.9-8.8-6.5-7-10c1.8-3.5,3.8-5,8.5-5
			c0,0,4.1,0.3,2,2.7C708,675.1,708,678,708.9,680.1 M696.7,686.3c0,0,3.6,3.8-1.2,7.6c-2.9,2.3-7,1.2-8.2-2.3
			c0,0-2.9-11.7,6.5-15.3C693.8,676.3,692.1,683.9,696.7,686.3 M712.5,731.7c-11.3,0-20.4-9.1-20.4-20.4c0-11.3,9.1-20.4,20.4-20.4
			c11.2,0,20.4,9.1,20.4,20.4C732.8,722.6,723.7,731.7,712.5,731.7 M772.1,610.4c-8-10.1-23.5-3.2-23.5-3.2
			c-20.3,12.8-19.2,42.7-19.2,42.7l-3.4,1.1l-2.5-1.7c-1.1-14.4,2.7-19.7,2.7-19.7c1.6-1.6,5.3-2.7,2.1-5.9
			c-3.2-3.2-5.3,3.2-5.3,3.2c-3.7,4.3-3.2,21.3-3.2,21.3l-2.4,0.9l-2.4-0.9l-1.1-17.6c0-3.2,2.7-12.8-1.6-12.8
			c-4.3,0-2.7,11.7-2.7,11.7c1.1,5.9,0.5,17.6,0.5,17.6l-1.6,1.1l-2.1-0.5c-0.5-5.9-2.7-17.1-2.7-17.1c-2.1-11.2-6.4-9.1-6.4-9.1
			c-3.2,2.1,1.6,9.1,1.6,9.1c4.8,9.1,2.7,18.7,2.7,18.7l-1.5,1.5l-2.8-0.4c-1.6-22.9-12.8-38.4-12.8-38.4
			c-16-17.1-29.3-1.1-29.3-1.1c-5.9-10.1-3.7-41.6,24-41.6c27.7,0,34.2,23.5,34.2,23.5c11.2-24,31-21.9,31-21.9
			C781.2,573.1,772.1,610.4,772.1,610.4 M759.3,568.3c-28.3-10.7-45.9,12.3-45.9,12.3c-26.7-33.1-56.6-9.1-56.6-9.1
			c-20.8,23.5-1.1,48-1.1,48c4.3-14.4,18.1-8,18.1-8c16,6.4,17.7,39.8,17.7,39.8s-6.7,1.9-10.4,9.4c-3.8,7.5,2.3,18.6,2.3,18.6
			s-1.6-1.6-1.6,8.5c0,8.2,5.9,11.5,8.2,12.5c-1.6,3.3-2.6,7-2.6,11c0,13.8,11.2,24.9,24.9,24.9c13.8,0,24.9-11.2,24.9-24.9
			c0-5.2-1.6-10-4.3-14c1.8-1.4,5.4-4.7,7-9.5c2.1-6.4-3.7-12.3-3.7-12.3c6.4-3.7,4.8-13.9,3.7-17.1c-1.1-3.2-6.4-5.9-6.4-5.9
			c1.6-19.7,5.4-34.7,17.6-41.1c12.3-6.4,23.5,7.5,23.5,7.5C776.9,614.7,787.6,579,759.3,568.3"/>
		<path class="st0" d="M280.3,718.3c-3.8,0-7-3.1-7-7c0-3.8,3.1-7,7-7c3.8,0,7,3.1,7,7C287.3,715.2,284.2,718.3,280.3,718.3
			 M280.3,700.3c-6.1,0-11,4.9-11,11s4.9,11,11,11c6.1,0,11-4.9,11-11S286.4,700.3,280.3,700.3"/>
		<path class="st0" d="M495.6,718.3c-3.8,0-7-3.1-7-7c0-3.8,3.1-7,7-7c3.8,0,7,3.1,7,7C502.6,715.2,499.5,718.3,495.6,718.3
			 M495.6,700.3c-6.1,0-11,4.9-11,11s4.9,11,11,11c6.1,0,11-4.9,11-11S501.7,700.3,495.6,700.3"/>
		<path class="st0" d="M712.5,718.3c-3.8,0-7-3.1-7-7c0-3.8,3.1-7,7-7c3.8,0,7,3.1,7,7C719.4,715.2,716.3,718.3,712.5,718.3
			 M712.5,700.3c-6.1,0-11,4.9-11,11s4.9,11,11,11c6.1,0,11-4.9,11-11S718.5,700.3,712.5,700.3"/>
		<path class="st0" d="M699.1,351.9c0.4,0.2,0.7,0.6,1,1c0-0.5,0.1-0.9,0.4-1.3C699.8,351.8,699.7,351.8,699.1,351.9"/>
		<path class="st0" d="M718.1,300.8c0-0.4,0.1-0.8,0.4-1.2c-0.6,0.1-0.7,0.2-1.3,0.3C717.6,300.1,717.9,300.4,718.1,300.8"/>
		<path class="st0" d="M710.5,321.1L710.5,321.1c0,0.8-0.2,1.2-0.5,1.6c0.9-0.2,1.1-0.3,1.9-0.5
			C711.3,322.1,710.8,321.7,710.5,321.1"/>
		<path class="st0" d="M719.5,351.3c-0.3-1.5-0.4-2.2-0.7-3.4c-0.2,0.3-0.4,0.7-0.9,0.8c0,0-1.3-0.2-1.5-0.2
			C717.6,349.2,718.6,350.2,719.5,351.3"/>
		<path class="st0" d="M757.7,407.7c1.2-0.2,2.9-0.6,3.1-0.7c0-0.6-0.1-1.8-0.3-3.6C760.1,405.1,759.3,406.7,757.7,407.7"/>
		<path class="st0" d="M706.4,275.3c-0.5,0.1-1,0.1-1.5-0.2c-1.5-0.9-2.7-3.7-3.6-8.4c-0.3-1.8-0.6-3.7-0.6-5.4c0-2.6,0.5-4.6,2-5
			c0.5-0.1,0.9-0.1,1.3,0.2c1.5,0.9,2.9,4.1,3.8,8.4C709.4,272.7,707.9,274.9,706.4,275.3 M688.4,269c-0.3-1.5-1.4-7.6-1.4-7.6
			c0-0.1,0-0.1,0-0.2c0-0.2,0.1-0.3,0.3-0.3c0.7-0.2,1,0,1.2,0.1c0.6,0.4,1.1,1.5,1.4,3.5c0.2,0.9,0.2,1.6,0.2,2.1
			C690.1,268.1,689.4,268.6,688.4,269 M707.9,254.5c-1.8-1.1-3.8-1.4-5.8-0.9c-4.2,1.1-6.7,5.5-6.7,11c0-0.6-0.1-1.2-0.2-1.6
			c-0.4-2.1-1.3-3.6-2.6-4.4c-1.4-0.9-3.2-1-5.3-0.5l-7.9,2.1l0.4,2.2l0.7-0.1c1-0.1,1.2-0.2,1.5,1.8l2.5,14.1
			c0.3,1.6,0.1,1.9-0.1,2.1l-1,0.5l-0.5,0.3l0.1,0.6l0.3,1.6l9.2-2.4l-0.4-2.2l-0.7,0.1c-1.4,0.1-1.4,0.1-1.7-1.8
			c0,0-0.7-3.8-0.9-5.3c2.4-0.7,3.8-1.1,5.1-2.7c1.1-1.4,1.5-3,1.5-4.3c0,1.1,0.1,2.2,0.3,3.3c0.8,4.1,2.6,7.2,5.2,8.9
			c1.8,1.2,3.9,1.5,6,1c4.2-1.1,6.8-5.2,6.8-10.5c0-1.2-0.1-2.5-0.4-3.8C712.5,259.3,710.6,256.2,707.9,254.5"/>
		<path class="st0" d="M720.1,260.4c-0.3-1.5-1.6-7.3-1.6-7.3c0,0,0,0,0,0c0-0.1,0-0.6,0-0.6c0,0,0.6-0.2,0.6-0.2
			c0.6-0.2,1,0,1.2,0.1c0.6,0.4,1.2,1.5,1.5,3.2c0.2,1,0.3,1.7,0.3,2.3C722.2,259.4,721.4,259.9,720.1,260.4 M732.9,270.4l-0.5-2.3
			l-0.9,0.2c-0.1-0.1-4.8-5.7-6.3-7.5c1-0.8,2.2-2.2,2.2-4.7c0-0.6-0.1-1.2-0.2-2c-0.4-1.9-1.3-3.3-2.6-4.1
			c-1.5-0.9-3.5-1.1-5.9-0.4l-7.9,2.1l0.5,2.3l0.7-0.1c1.1-0.2,1.3-0.2,1.7,1.8l3,14.1c0.4,2,0.4,2-0.9,2.6l-0.6,0.2l0.5,2.2
			l9.3-2.4l-0.5-2.2l-0.7,0c-1.4,0.1-1.4,0.1-1.8-1.8c0,0-0.5-2.4-0.9-4.3c1.6,2.1,6,7.7,6,7.7L732.9,270.4z"/>
		<path class="st0" d="M687.5,368.7l-2.2,0.5l-0.1,0.5c-0.9,4.9-3.2,6.1-5.3,6.6c-0.9,0.2-1.2,0.1-1.2,0.1l-0.2-0.7c0,0-0.7-5.2-1-7
			c0.7-0.1,1.2,0,1.6,0.2c0.7,0.4,1.2,1.5,1.6,3.3l0.2,0.8l2.1-0.5l-1.8-12.4l-2.1,0.5l0,0.6c0,0.3,0,0.5,0,0.8
			c0,2.7-0.8,3.5-2.1,3.9c-0.2-1.4-0.9-6.5-0.9-6.5c0-0.2,0-0.3,0-0.4c0-0.4,0.2-0.4,1.1-0.6c3-0.7,4.5-0.6,5.7,3.4l0.2,0.7l2-0.5
			l-1.2-8l-0.8,0.2l-15.4,3.5l0.3,2.3l0.8-0.1c0.5-0.1,1-0.2,1.2,0l0.4,1.1l2.2,15.5c0.2,1.4,0,1.4-1.4,1.9l-0.6,0.2l0.1,0.6
			l0.2,1.7l16.4-3.8L687.5,368.7z"/>
		<path class="st0" d="M718.1,300.8c-0.2-0.4-0.5-0.7-0.9-0.9c0.6-0.2,0.7-0.2,1.3-0.3C718.2,299.9,718.1,300.3,718.1,300.8
			 M710.5,321.2L710.5,321.2c0.3,0.5,0.8,0.9,1.3,1.1c-0.8,0.2-1,0.2-1.9,0.5C710.3,322.3,710.5,321.9,710.5,321.2 M687.2,308.2
			c1.1-0.1,1.2-0.1,1.6,1.8l1.9,10.6c0.6,3.5,1.5,4.7,3,5.9c1.5,1.2,3.6,1.5,5.9,1c1.6-0.4,3.9-1.7,4.9-3.9c1-2.3,0.4-6.2,0.2-6.9
			l-1.9-10.2c-0.3-1.7,0-1.9,0.9-2.3l0.5-0.2l0.2,0c0.1,0,0.5,0.2,1.6,1.4c0.1,0.5,2.9,14.9,2.9,14.9c0.1,0.4,0.1,0.7,0.1,1
			c0,0.7-0.4,0.9-1.3,1.2l-0.6,0.2l0.4,2.2l7-1.7l-0.4-2.2l-0.7,0.1c-1.3,0.1-1.7,0.1-2.1-2c0,0-1.4-7-2-10.3
			C712,311.6,722,322,722,322l1.8-0.4l-4.1-19.6c-0.3-1.4-0.2-1.7,0.9-2.1l0.6-0.3l-0.5-2.2l-0.8,0.2l-5.8,1.5l0.5,2.2l0.7-0.1
			c1.2-0.2,1.6,0.1,2,2c0,0,0.9,4.2,1.4,7.1c-2.5-2.7-9.5-10-9.5-10l-6.1,1.5l-0.2,0.1l-5.9,1.5l0.4,2.3l0.8-0.1c1.3-0.2,1.6,0,2,2
			c0,0,1.8,9.7,1.8,9.7c0.6,2.9,0.8,6.3-2.4,7.1c-0.7,0.2-1.2,0.1-1.7-0.2c-1.3-0.9-1.8-3.4-2-4.6l-1.9-10.7
			c-0.4-2.1-0.2-2.2,1.2-2.6l0.7-0.2l-0.1-0.7l-0.3-1.6l-9.5,2.4l0.4,2.2L687.2,308.2z"/>
		<path class="st0" d="M729.2,305.5c1,1.7,1.8,3.2,2.3,4.1c-0.9,0.2-1.7,0.4-2.6,0.6C729,309.1,729.1,307.5,729.2,305.5
			 M731.2,319.2l-0.5-2.3L730,317c-1.2,0.2-1.3,0-1.4-0.3c0,0,0.1-2.8,0.2-3.6c0.8-0.2,3.4-0.8,4.2-1c1.2,2,1.6,2.9,1.7,3.3v0
			c0,0.3-1.1,0.8-1.1,0.8l-0.6,0.3l0,0.7l0.3,1.6l9.3-2.3l-0.5-2.4l-0.8,0.2c-0.5,0.1-1-0.6-2.7-3.5l-9.3-16l-0.6,0.1l-1.2,0.3
			l-1.5,19.4c-0.2,2.7-0.4,3.3-1.1,3.7l-0.6,0.3l0.5,2.2L731.2,319.2z"/>
		<path class="st0" d="M657.6,376.6l-0.4,0.8c-1.4,2.9-3,4.4-4.9,4.8c0,0-2.1,0.4-3.4-1.6c-0.8-1.3-1.5-3.5-1.8-6.4
			c-0.8-6.3,0.1-9.8,2.7-10.4c2.5-0.6,4.8,2.7,5.8,4.7l0.3,0.6l1.9-0.4l-1.2-9l-0.8,0.2l-1.2,0.3l-0.1,0.5c-0.1,0.4-0.2,1-0.4,1.1
			c0,0-0.8-0.2-0.8-0.2c-1-0.3-2.6-0.6-4.2-0.3c-5.5,1.3-8.9,7.3-8.1,14.2c0.5,3.7,2.1,6.8,4.5,8.5c2,1.4,4.4,1.8,7,1.2
			c3.7-0.8,5.6-3.7,7-6.6l0.3-0.6L657.6,376.6z"/>
		<path class="st0" d="M669.4,378.6c-1.4,0.2-1.7,0.2-1.9-1l-2.2-15.4c-0.2-1.5,0.3-1.6,1.4-1.9l0.7-0.2l-0.1-0.7l-0.2-1.6l-0.8,0.2
			l-9.4,2.2l0.3,2.3l0.8-0.1c0.5-0.1,1-0.1,1.3,0l0.4,1l2.1,15.4c0.2,1.3-0.2,1.5-1.5,1.9l-0.6,0.2l0.3,2.3l10.4-2.3l-0.3-2.3
			L669.4,378.6z"/>
		<path class="st0" d="M700,353c-0.2-0.4-0.5-0.8-1-1c0.6-0.1,0.7-0.2,1.4-0.3C700.2,352,700.1,352.5,700,353 M685.6,355.9
			c0.1,0,0.5,0.2,1.6,1.4c0.1,0.5,2.5,14.8,2.5,14.8c0.1,0.4,0.1,0.6,0.1,0.9c0,0.8-0.4,0.9-1.4,1.3l-0.6,0.2l0.4,2.2l7.3-1.6
			l-0.4-2.2l-0.7,0.1c-1.4,0.1-1.8,0.1-2.1-2c0,0-1.1-6.7-1.7-10.3c2.6,2.7,12.8,13.3,12.8,13.3l1.9-0.4l-3.5-19.5
			c-0.2-1.3-0.3-1.6,1-2.1l0.6-0.2l-0.4-2.2l-0.8,0.2l-6,1.4l0.4,2.3l0.7-0.1c1.4-0.2,1.7,0.1,2,2c0,0,0.8,4.3,1.3,7.2
			c-2.5-2.6-9.6-10.1-9.6-10.1l-6.4,1.5l0.3,2L685.6,355.9z"/>
		<path class="st0" d="M717.9,348.7c0.5-0.1,0.7-0.4,0.9-0.8c0.2,1.2,0.4,1.9,0.7,3.4c-0.9-1.2-1.9-2.1-3.1-2.8
			C716.6,348.6,717.9,348.7,717.9,348.7 M721.6,363c-1.6,3.7-3.3,4.5-4.6,4.8c0,0-2.1,0.4-3.6-1.6c-1.2-1.7-1.9-4.4-2.3-6.5
			c-0.8-4.3-1.1-9.7,2.1-10.4c2.2-0.5,4.7,2.1,6.2,4.8l0.3,0.5l1.9-0.5l-1.8-9l-0.8,0.2l-1.2,0.3l-0.1,0.6c0,0.3-0.1,1-0.2,1.1
			c0,0-0.8-0.2-0.8-0.2c-1.1-0.3-2.6-0.7-4.3-0.3c-5.5,1.3-8.5,7.3-7.2,14.4c0.7,3.8,2.6,6.9,5.1,8.6c2,1.4,4.4,1.7,7,1.2
			c3.7-0.8,5.4-3.7,6.7-6.7l0.2-0.6l-2.2-1.5L721.6,363z"/>
		<path class="st0" d="M739.1,351.1c1,1.7,1.9,3.2,2.4,4.2c-0.9,0.2-1.9,0.4-2.8,0.6C738.8,354.9,739,353.1,739.1,351.1
			 M735.1,366.3l0.2,0l5.8-1.3l-0.5-2.3l-0.7,0.1c-1.2,0.2-1.4,0-1.5-0.3c0,0,0.1-2.5,0.2-3.6c0.8-0.2,3.7-0.9,4.5-1
			c1,1.7,1.6,2.8,1.7,3.3v0c0,0.3-1.2,0.8-1.2,0.8l-0.6,0.2l0,0.7l0.3,1.6l9.7-2.2l-0.5-2.4l-0.8,0.2c-0.6,0.2-1.1-0.6-2.9-3.5
			l-9.6-16.1l-0.6,0.1l-1.2,0.3l-1.8,19.4c-0.2,2.7-0.4,3.3-1.2,3.7l-0.1,0.1l-0.4,0c-1.4,0.2-1.7,0.2-2-1.1l-3.2-15.5
			c-0.3-1.4,0.2-1.6,1.3-1.9l0.7-0.2l-0.1-0.7l-0.3-1.6l-0.8,0.2l-9.4,2.2l0.4,2.3l0.8-0.1c1.1-0.2,1.6-0.2,1.8,1.1l3.2,15.5
			c0.3,1.3-0.1,1.5-1.4,1.9l-0.6,0.2l0.5,2.2l9.5-2.2L735.1,366.3z"/>
		<path class="st0" d="M721.6,400.3l0.2,0.7l2.2-0.5l-1.6-7.9l-0.8,0.2l-16.3,3.5l-0.6,0.1l-9.8,2.1l-0.3,0.1l-6.3,1.3l0.4,2.3
			l0.8-0.1c1.5-0.2,1.5-0.1,1.6,0.3l-0.1,1.9c0,0.2-0.8,5.8-1.3,9.1c-1.4-2.5-4.2-7.8-4.2-7.8l-0.8-1.8c-0.1-0.5-0.1-0.5,1.3-0.9
			l0.6-0.2l0.1-0.7l-0.3-1.6l-10.3,2.2l0.3,2.2l0.7,0c1,0,1.1,0,1.8,1.3l10,18.1l1.8-0.4l3-20.5c0.3-1.8,0.5-2.1,1.4-2.5l0.3-0.1
			l0.7-0.1c1.2-0.2,1.7-0.2,1.9,1.1l2.6,15.4c0.2,1.3-0.2,1.5-1.6,1.9l-0.6,0.2l0.4,2.3l10.8-2.3l-0.4-2.3l-0.7,0.1
			c-1.5,0.2-1.8,0.2-2.1-1.1l-2.7-15.4c-0.3-1.4,0.3-1.6,1.5-1.9l0.6-0.1l0.9,5.7l2.2-0.5l-0.1-0.7c0-0.3,0-0.7,0-1
			c0-3.1,1.3-3.9,2.7-4.4c0.3,1.6,2.9,15.9,2.9,15.9c0.1,0.6,0.2,1,0.2,1.3c0,0.7-0.4,0.8-1.7,1.2l-0.7,0.2l0.4,2.3l11-2.3l-0.4-2.3
			l-0.7,0.1c-1.9,0.2-1.9,0.2-2.3-1.8c0,0-2.4-12.6-3-16C718.8,396.3,720.4,396.6,721.6,400.3"/>
		<path class="st0" d="M757.7,407.7c1.6-1,2.4-2.5,2.8-4.3c0.1,1.8,0.2,3,0.3,3.6C760.6,407.1,758.9,407.4,757.7,407.7 M731.2,405.4
			c0.1-1.1,0.3-2.9,0.5-4.9c1,1.7,1.9,3.3,2.5,4.2C733.2,405,732.2,405.2,731.2,405.4 M761.8,399.2l-2.2,0.5l-0.1,0.6
			c-0.4,4-1.2,6.3-4.6,7c-1.6,0.3-1.6,0.2-1.8-0.7l-3.3-15.1c-0.5-2.1-0.3-2.1,1.4-2.6l0.7-0.2l-0.1-0.7l-0.4-1.6l-0.8,0.2l-9.8,2.1
			l0.5,2.3l0.7-0.1c1.2-0.1,1.5-0.2,1.8,1.2l3.4,15.5c0.3,1.3,0.1,1.3-1.3,1.8l-0.5,0.2l0-0.1l-0.8,0.2c-0.6,0.2-1.1-0.4-2.9-3.5
			l-9.6-16.1l-0.5,0.1l-1.3,0.3l-2.3,19.3c-0.3,2.7-0.5,3.3-1.4,3.7l-0.6,0.2l0.4,2.2l6.9-1.4l-0.5-2.3l-0.7,0.1
			c-1.3,0.2-1.5,0-1.6-0.3c0,0,0.2-2.9,0.3-3.6c0.8-0.2,4-0.8,4.8-1c1.2,2,1.7,3,1.7,3.3v0c0,0.3-1.3,0.7-1.3,0.7l-0.6,0.2l0,0.7
			l0.3,1.6l10.1-2.1l16.5-3.5L761.8,399.2z"/>
		<path class="st0" d="M288.1,248.8c0.3-1.4,1.6-8.5,1.6-8.5c0.1-0.4,0.2-0.5,0.7-0.5c0.9,0.1,1.2,0.4,1.3,0.6
			c0.5,0.6,0.5,2,0.1,4.1C291.1,248.3,290.1,248.9,288.1,248.8 M297,239.9c-1.1-1.5-3-2.4-5.5-2.7l-9.2-1l-0.1,0.7l-0.3,1.6l0.7,0.2
			c1.2,0.3,1.4,0.4,1,2.5l-3,15.3c-0.3,1.7-0.7,2-0.9,2.2c0,0-1.3,0.2-1.3,0.2l-0.6,0.1l-0.1,0.5l-0.3,1.7l10.5,1.1l0.4-2.3
			l-0.7-0.2c-1-0.3-1.4-0.4-1.4-1c0-0.3,0.1-0.8,0.2-1.5c0,0,0.8-4.3,1.1-5.8c2.9,0.3,4.6,0.4,6.6-0.7c2.7-1.5,3.5-4.1,3.8-5.5
			C298.3,243.1,298,241.2,297,239.9"/>
		<path class="st0" d="M304.8,262.1c-0.7-0.1-1.2-0.4-1.6-0.9c-1.2-1.5-1.3-4.9-0.3-9.9c0.9-5.1,3-10.3,5.9-10
			c0.6,0.1,1.1,0.3,1.5,0.9c1.2,1.6,1.3,5.2,0.5,9.9C309.1,260.7,306.6,262.3,304.8,262.1 M315,242c-1.5-1.9-3.6-3.1-5.9-3.4
			c-5.8-0.6-11.1,4.4-12.5,11.9c-0.8,4.3-0.2,8.2,1.8,10.8c1.5,2,3.5,3.1,6,3.4c6,0.6,11.1-4.3,12.5-11.9
			C317.7,248.5,317,244.7,315,242"/>
		<path class="st0" d="M326.7,244.6c0,0.1,0.2-0.6,0.2-0.6l0.8,0c0.6,0.1,1.1,0.3,1.4,0.7c0.5,0.7,0.6,1.9,0.3,3.8
			c-0.7,3.7-1.7,4.3-4.1,4.2C325.6,251.2,326.7,244.6,326.7,244.6 M335.5,249.1c0.1-0.5,0.1-1,0.1-1.5c0-1.4-0.4-2.5-1.1-3.5
			c-1.2-1.6-3.2-2.5-6.1-2.9l-9.2-1l-0.1,0.7l-0.3,1.6l0.8,0.2c1.3,0.3,1.5,0.3,1.2,2.6l-2.7,15.3c-0.4,2.2-0.5,2.2-2.2,2.3l-0.6,0
			l-0.4,2.3l10.6,1.1l0.4-2.3l-0.7-0.2c-1.1-0.3-1.4-0.4-1.4-1.1c0-0.3,0.1-0.8,0.2-1.4c0,0,0.5-3.1,0.9-5.1
			c0.7,2.3,3.3,10.4,3.3,10.4l6.7,0.7l0.4-2.4l-0.8-0.1c-0.2,0-0.2,0-0.3-0.3c0,0-2.6-7.4-3.4-9.7
			C332.2,254.4,334.8,253.2,335.5,249.1"/>
		<path class="st0" d="M311.1,292.3l0.6,0l0.4-2.3l-7.3-0.8l-0.4,2.3l0.8,0.2c1,0.2,1.4,0.5,1.4,1.4c0,0.3-0.1,0.8-0.2,1.3
			c0,0-0.9,4.9-1.5,8c-1.4-3.4-5.9-13.9-5.9-13.9l-6.9-0.7l-7-0.7l-0.4,2.3l0.8,0.1c0.7,0.1,1.1,0.3,1.3,0.6c0.3,0.4,0.2,1.3,0,2.2
			l-2,10.6c-0.6,3.2-1.8,6.8-5.4,6.4c-0.8-0.1-1.3-0.4-1.7-0.9c-1-1.4-0.5-4.1-0.2-5.4c0,0,2.2-11.6,2.2-11.6
			c0.5-2.4,0.8-2.4,2.4-2.3l0.7,0l0.1-0.6l0.3-1.7l-10.7-1.1l-0.1,0.7l-0.3,1.6l0.7,0.2c1.3,0.3,1.4,0.3,1,2.5l-2.3,11.6
			c-0.8,3.8-0.3,5.3,0.7,7c1.4,2.2,3.9,2.9,5.7,3.1c1.8,0.2,4.6-0.3,6.5-2.2c2-2,2.8-6.1,3-6.9l2.1-11.1c0.4-2,0.8-2,2-2.1l0.6,0v0
			l0.3,0.2c0.1,0,0.4,0.4,1.1,2.1c-0.1,0.5-3,16.2-3,16.2c-0.3,1.8-0.7,1.8-2.2,1.9l-0.6,0l-0.4,2.3l7.7,0.8l0.4-2.3l-0.7-0.2
			c-1-0.3-1.5-0.4-1.5-1.4c0-0.3,0.1-0.8,0.2-1.4c0,0,1.4-7.5,2.2-11.4c1.5,3.5,7.8,18.2,7.8,18.2l1.9,0.2l3.8-21.1
			C309.4,292.7,309.6,292.3,311.1,292.3"/>
		<path class="st0" d="M315.3,305.8c0.5-1.1,1.5-2.9,2.4-4.9c0.3,2.1,0.6,4.2,0.8,5.2C317.5,306,316.4,305.9,315.3,305.8
			 M326.5,314.4c-0.6,0-0.8-0.7-1.4-4.5l-2.9-19.4l-1.9-0.2l-0.2,0.5l-9.4,18.3c-1.3,2.5-1.7,3.3-2.8,3.4l-0.6,0l-0.4,2.3l7.1,0.7
			l0.4-2.3l-0.8-0.1c-0.4-0.1-1.1-0.2-1.3-0.5l0-0.3c0.1-0.4,0.8-1.8,1.7-3.7c0.8,0.1,4.1,0.4,5,0.5c0.3,1.8,0.4,2.9,0.4,3.5
			c0,0.2,0,0.3,0,0.4l-0.1,0.4l-2.1,0.1l-0.2,0.6l-0.3,1.7l10.4,1.1l0.4-2.5L326.5,314.4z"/>
		<path class="st0" d="M298.3,361.4l-0.6-0.2l0-1.1l3.2-17.3c0.1-0.7,0.1-0.9,1.2-0.8c0.9,0.1,1.5,0.5,2,1.1c1.8,2.4,1,7.5,0.7,9
			C303.3,360.9,300.4,361.6,298.3,361.4 M289.8,360.9l-0.7-0.1h0l-0.1,0c-1.5-0.3-1.8-0.4-1.6-1.8l3.1-16.7c0.3-1.7,1-1.6,2.2-1.6
			l0.6,0l0.3,0.1c1,0.2,1.4,0.3,1.2,1.6l-3.2,17C291.5,360.6,291,361,289.8,360.9 M309.6,342.9c-1.6-2.1-4-3.3-7.2-3.6l-8.5-0.9
			l-11.2-1.1l-7-0.7l-0.5,2.3l0.8,0.1c0.4,0.1,1.3,0.2,1.4,0.4v0.5l-0.8,1.9c-0.1,0.1-3,5.8-4.7,9c-0.4-3-1.3-9.5-1.3-9.5l-0.2-2.2
			c0.1-0.6,0.1-0.6,1.7-0.6l0.6,0l0.3-0.6l0.3-1.7l-10.8-1.1l-0.1,0.7l-0.3,1.5l0.7,0.2c1,0.3,1.1,0.3,1.3,2l3.1,22l1.9,0.2
			l10.5-20.1c0.9-1.8,1.3-2.1,2.4-2.2l0.3,0l0.7,0.1c0.6,0.1,1.1,0.2,1.3,0.5c0.2,0.2,0.2,0.7,0.1,1.3l-3.2,16.7
			c-0.3,1.5-0.8,1.5-2.3,1.6l-0.6,0l-0.4,2.3l10.6,1.1l9.6,1c6.8,0.4,11.6-3.9,13-11.6C311.7,350.3,312.1,346.1,309.6,342.9"/>
		<path class="st0" d="M317.2,356.3c0.5-1.1,1.5-3,2.5-4.9c0.3,2.1,0.6,4.2,0.8,5.3C319.5,356.5,318.3,356.4,317.2,356.3
			 M328.7,364.8c-0.7,0-0.9-0.7-1.5-4.4l-3.1-19.4l-1.9-0.2l-0.2,0.5l-9.5,18.3c-1.3,2.5-1.7,3.3-2.8,3.3l-0.6,0l-0.4,2.3l7.2,0.7
			l0.4-2.3l-0.8-0.1c-0.4-0.1-1.2-0.2-1.4-0.5c0-0.7,0.7-2.1,1.7-4c0.8,0.1,4.2,0.4,5.1,0.5c0.3,1.6,0.4,2.8,0.4,3.5
			c0,0.2,0,0.3,0,0.4l-0.1,0.4l-2.1,0.1l-0.2,0.6l-0.3,1.7l10.6,1.1l0.4-2.4L328.7,364.8z"/>
		<path class="st0" d="M269.8,406.3l-1.6-2.2l-0.6,0.6c-2.5,2.5-4.7,3.6-6.9,3.4c-0.8-0.1-2.5-0.8-3-2.9c-0.4-1.6-0.3-4.2,0.3-7.4
			c1.4-6.9,3.6-10.3,6.6-10c2.9,0.3,4.2,4.5,4.5,7l0.1,0.6l2,0.2l1.9-9.6l-2.1-0.2l-0.2,0.5c-0.4,0.7-0.6,1.1-0.8,1.1
			c0,0-0.8-0.5-0.8-0.5c-1-0.6-2.5-1.6-4.3-1.7c-6.2-0.6-11.8,4.5-13.3,12c-0.8,4-0.2,7.8,1.7,10.4c1.5,2.1,3.9,3.3,6.7,3.6
			c4.1,0.4,7-1.9,9.5-4.5L269.8,406.3z"/>
		<path class="st0" d="M280.5,410.2l-0.3,0l-0.5-0.1c-0.7-0.1-1.4-0.3-1.6-0.5c-0.1-0.2-0.2-0.6,0-1.3l3.2-16.7
			c0.3-1.6,1-1.6,2.3-1.5l0.6,0l0.4,0.1c0.6,0.1,1.1,0.2,1.3,0.5c0.2,0.2,0.2,0.7,0.1,1.3l-3.1,16.7
			C282.5,410.1,282.2,410.2,280.5,410.2 M298.2,405.5l-0.3,0.5c-2.6,4.8-5.4,5.2-7.8,5c-1-0.1-1.3-0.3-1.3-0.4v-0.9
			c0,0,1.1-6,1.4-7.5c0.7,0.2,1.4,0.3,1.7,0.7c0.4,0.5,0.6,1.3,0.6,2.5c0,0.4,0,0.9-0.1,1.5l-0.1,0.8l2.2,0.2l2.4-13.2l-2.2-0.2
			l-0.2,0.6c-1,3.6-2.2,4.2-3.9,4.2c0.3-1.4,1.3-7.1,1.3-7.1c0.2-0.9,0.2-0.9,1.5-0.8c3.4,0.3,4.9,1,4.7,5.6l0,0.7l2.2,0.2l1.5-8.5
			l-17.2-1.7l-11.4-1.1l-0.1,0.7l-0.3,1.6l0.8,0.2c0.6,0.1,1.2,0.2,1.4,0.5c0.2,0.2,0.2,0.7,0.1,1.3l-3.2,16.7
			c-0.3,1.5-0.8,1.5-2.4,1.6l-0.6,0l-0.4,2.3l10.9,1.1l18.1,1.7l3-8.6L298.2,405.5z"/>
		<path class="st0" d="M350,416.9l-0.4,0l-0.5-0.1c-1.5-0.3-1.9-0.4-1.7-1.8l2.7-16.7c0.3-1.6,0.9-1.6,2.2-1.5l0.6,0l0.4,0.1
			c1.3,0.2,1.7,0.3,1.4,1.8l-2.6,16.7C351.9,416.9,351.6,416.9,350,416.9 M381.3,399.6l0.2-0.7l0.2-1.7l-11.4-1.1l-16.7-1.6
			l-11.4-1.1l-18.4-1.8l-7.6-0.7l-0.4,2.3l0.7,0.1c1.1,0.2,1.5,0.5,1.5,1.5c0,0.3,0,0.7-0.1,1.3c0,0-0.9,5.2-1.4,8.1
			c-1.5-3.2-6.4-13.9-6.4-13.9l-7.1-0.7l-0.1,0.7l-0.3,1.4l0.8,0.4c0.1,0,0.4,0.4,1.2,2.1c-0.1,0.5-2.9,16.1-2.9,16.1
			c-0.3,1.8-0.7,1.8-2.3,1.9l-0.6,0l-0.4,2.3l8,0.8l0.4-2.3l-0.7-0.2c-1.2-0.3-1.6-0.5-1.6-1.5c0-0.3,0-0.7,0.1-1.3
			c0,0,1.3-7.5,2-11.5c1.6,3.4,8.5,18.2,8.5,18.2l1.9,0.2l3.6-21c0.3-1.5,0.4-1.8,2-1.9l0.6,0l-1.1,6.2l2.3,0.2l0.2-0.6
			c1.1-4.1,3-4.7,4.8-4.7c-0.3,1.6-2.9,17.2-2.9,17.2c-0.4,2.2-0.5,2.2-2.5,2.2h-0.7l-0.4,2.3l11.7,1.1l0.4-2.3l-0.8-0.1
			c-1.4-0.3-1.8-0.3-1.8-1.1c0-0.3,0.1-0.8,0.2-1.4c0,0,2.3-13.9,2.9-17.4c1.6,0.3,3.1,1,3.1,4.5c0,0.3,0,0.6,0,0.9l-0.1,0.8
			l2.3,0.2l0.9-6.1l0.7,0.1c1.3,0.2,1.8,0.3,1.5,1.8l-2.7,16.7c-0.3,1.5-0.8,1.5-2.3,1.5l-0.7,0l-0.4,2.3l11.5,1.1l11.2,1.1l0.4-2.4
			l-0.8-0.1c-0.9-0.1-1.8-0.3-2-0.6c-0.1-0.1-0.1-0.4-0.1-0.6c0-0.2,0-0.4,0.1-0.6c0,0,0.8-5,1.1-7c1.5,0.4,2.1,1.4,2.1,3.5
			c0,0.3,0,0.7,0,1.1l0,0.7l2.2,0.2l2-13.2l-2.2-0.2l-0.2,0.6c-0.8,2.6-1.4,4.1-3.5,4.2c0.2-1.4,1.1-7.1,1.1-7.1
			c0.2-0.9,0.2-0.9,1.4-0.8c4.1,0.4,4.6,1.9,4.7,5.6l0,0.7l2.1,0.2l0.9-6.1l0.6,0.1c1.3,0.2,1.8,0.3,1.6,1.8l-2.5,16.6
			c-0.2,1.5-0.7,1.5-2.3,1.5l-0.7,0l-0.3,2.3l11.5,1.1l0.3-2.3l-0.7-0.1c-1.6-0.3-1.9-0.4-1.7-1.8l2.5-16.7c0.3-1.6,0.8-1.6,2.2-1.5
			L381.3,399.6z"/>
		<path class="st0" d="M399,418.9l-1.7-2.2l-0.6,0.7c-2.4,2.5-4.4,3.6-6.7,3.3c0,0-2.4-0.3-3.2-2.9c-0.5-1.6-0.6-4.2-0.1-7.3
			c1-6.9,3-10.2,6-9.9c2.9,0.3,4.4,4.6,4.9,7l0.1,0.6l2,0.2l1.3-9.6l-2.1-0.2l-0.2,0.5c-0.3,0.7-0.5,1-0.7,1c0,0-0.8-0.5-0.8-0.5
			c-1-0.6-2.5-1.6-4.3-1.7c-6.2-0.6-11.5,4.4-12.6,12c-0.6,4,0.2,7.8,2.2,10.3c1.7,2.1,4,3.4,6.9,3.6c4.1,0.4,6.9-1.9,9.3-4.5
			L399,418.9z"/>
		<path class="st0" d="M406.1,415c0.5-1.1,1.4-3,2.3-5c0.4,2.1,0.8,4.2,1.1,5.3C408.4,415.3,407.1,415.1,406.1,415 M418.2,423.6
			c-0.7,0-1-0.7-1.7-4.5l-4-19.3l-1.9-0.2l-0.2,0.5l-8.9,18.2c-1.2,2.5-1.6,3.2-2.7,3.3l-0.6,0.1l-0.3,2.3l7.3,0.7l0.3-2.3l-0.7-0.1
			c-1.3-0.2-1.5-0.4-1.5-0.7c0,0,0-0.1,0-0.1c0.1-0.4,0.7-1.8,1.6-3.6c0.8,0.1,4.4,0.4,5.3,0.5c0.4,2.1,0.6,3.2,0.6,3.6
			c0,0.1,0,0.2,0,0.2l-0.1,0.4l-1.5,0.1l-0.6,0l-0.2,0.6l-0.2,1.6l10.8,1.1l0.3-2.4L418.2,423.6z"/>
		<path class="st0" d="M338,132.9l-7.7-2.4l-2.2,2.6l12.8,24.5C347.1,148.9,341.9,140.1,338,132.9"/>
		<path class="st0" d="M458.5,120.6c3.7-8.6,0.9-20-6.4-23.7l-3.8,2.6c2.7,8.8,2.9,18.7,3,26.3C454.7,123.2,458.5,121.9,458.5,120.6
			"/>
		<path class="st0" d="M215.1,209.7l4.8,3.7c0,0-3.6,4.7-4.3,6c-0.6,1.3-2.9,3-3.1,3.2c-0.2,0.3-1,0.7-1,0.7l-1.3,0l-2.5-0.9
			C207.8,222.4,203.3,218.1,215.1,209.7z"/>
	</g>
</g>
</svg>
